<svg width="24" height="24" viewBox="0 0 24 24" fill="none" xmlns="http://www.w3.org/2000/svg">
<path d="M9.5478 16.4108L9.83934 16.6169C10.6278 17.1743 11.583 17.5 12.6133 17.5C15.3024 17.5 17.5 15.2713 17.5 12.5C17.5 9.72871 15.3024 7.5 12.6133 7.5C10.1013 7.5 8.01859 9.44424 7.75474 11.9597L7.72472 12.246L7.46215 12.3638C7.45606 12.3665 7.44954 12.3699 7.44261 12.3741M9.5478 16.4108L7.18364 11.9463M9.5478 16.4108L9.25823 16.6197C9.20748 16.6563 9.15099 16.6904 9.08977 16.7222C8.82721 16.8586 8.43138 16.9756 7.87938 17.0409C6.87428 17.1599 5.87506 16.6857 5.23516 16.1522C4.91899 15.8886 4.6708 15.5941 4.56211 15.3282C4.50769 15.195 4.47488 15.0353 4.52455 14.8843C4.5766 14.7262 4.6959 14.643 4.82771 14.6079L9.5478 16.4108ZM7.44261 12.3741L7.18364 11.9463M7.44261 12.3741C7.44262 12.3741 7.44262 12.374 7.44262 12.374L7.18364 11.9463M7.44261 12.3741C7.40055 12.3995 7.37057 12.4405 7.35099 12.4833C7.31683 12.558 7.30948 12.6485 7.30935 12.7264L7.30916 12.8404L7.25956 12.943C7.24131 12.9808 7.21692 13.025 7.18461 13.0754L6.76363 12.8057M7.18364 11.9463C7.02881 12.0401 6.94222 12.1749 6.89631 12.2753C6.81623 12.4504 6.80951 12.6294 6.80935 12.7255C6.80049 12.7438 6.78606 12.7706 6.76363 12.8057M6.76363 12.8057L7.18461 13.0754C7.07666 13.2439 6.90637 13.4413 6.68168 13.6405C6.23309 14.0383 5.58456 14.4287 4.83079 14.6071M6.76363 12.8057C6.68586 12.927 6.54858 13.0903 6.34993 13.2664C5.95335 13.6181 5.37718 13.9639 4.7156 14.1206M4.83079 14.6071L9.55072 17.0252C9.47719 17.0782 9.39942 17.1248 9.32028 17.1659C8.98578 17.3397 8.52543 17.4679 7.93816 17.5375C6.75043 17.6781 5.61831 17.1227 4.91497 16.5362C4.56956 16.2482 4.252 15.891 4.09928 15.5174C4.02442 15.3342 3.94657 15.0412 4.0496 14.7281C4.16744 14.37 4.44868 14.1914 4.69907 14.1247M4.83079 14.6071L4.83083 14.6071L4.83082 14.6071L4.83594 14.6057L4.78659 14.4203L4.7156 14.1206M4.83079 14.6071L4.83078 14.6071L4.82927 14.6075M4.83079 14.6071L4.82927 14.6075M4.83079 14.6071L4.77806 14.4213M4.7156 14.1206L4.70731 14.1225M4.7156 14.1206L4.78638 14.4195L4.70731 14.1225M4.70731 14.1225L4.69907 14.1247M4.70731 14.1225L4.77806 14.4213M4.69907 14.1247L4.77838 14.4226L4.77806 14.4213M4.69907 14.1247L4.77806 14.4213M4.82927 14.6075L4.82776 14.6078L4.82777 14.6079L4.82927 14.6075ZM9.49947 15.815L9.54395 15.9448L9.64847 16.0338C10.4441 16.7107 11.4766 17.125 12.6133 17.125C15.2157 17.125 17.2094 14.9879 17.2094 12.5C17.2094 10.0121 15.2157 7.875 12.6133 7.875C10.0403 7.875 8.06229 9.96418 8.01791 12.4157L8.01533 12.5584L8.08844 12.6809C8.19181 12.8542 8.28987 13.0398 8.3771 13.2118C8.55778 13.5681 8.74755 13.9799 8.91905 14.3721C9.09082 14.7649 9.24835 15.1475 9.36438 15.4481C9.4169 15.5841 9.4634 15.7097 9.49947 15.815ZM8.08282 13.6071L7.72856 12.9374L7.25211 13.5265C7.13835 13.6671 7.00043 13.8103 6.84381 13.9492C6.46514 14.285 5.95718 14.6133 5.36769 14.8294L4.62897 15.1003L5.1879 15.6541C5.24723 15.7129 5.31445 15.7743 5.39015 15.8374C5.98774 16.3357 6.92432 16.7775 7.85442 16.6674C8.28277 16.6167 8.59833 16.5357 8.8209 16.4479L9.29083 16.2625L9.10059 15.7945C9.0604 15.6956 9.01333 15.5832 8.96066 15.4605C8.78052 15.0412 8.54013 14.5147 8.30003 14.0315L8.01518 14.1731L8.30003 14.0315C8.22542 13.8814 8.15252 13.7389 8.08282 13.6071ZM11.8888 13.2639C11.8888 13.4959 11.8015 13.7838 11.6554 14.0072C11.4994 14.2458 11.3626 14.2917 11.3134 14.2917C11.2641 14.2917 11.1274 14.2458 10.9713 14.0072C10.8252 13.7838 10.7379 13.4959 10.7379 13.2639C10.7379 12.9645 10.7875 12.7608 10.8517 12.6492C10.8803 12.5997 10.9061 12.5779 10.9244 12.5669C10.9416 12.5566 10.9756 12.5417 11.0445 12.5417C11.202 12.5417 11.4274 12.6216 11.6168 12.7816C11.8045 12.9402 11.8888 13.1174 11.8888 13.2639ZM23.5 12C23.5 18.3513 18.3513 23.5 12 23.5C5.64873 23.5 0.5 18.3513 0.5 12C0.5 5.64873 5.64873 0.5 12 0.5C18.3513 0.5 23.5 5.64873 23.5 12ZM12 22.5C17.799 22.5 22.5 17.799 22.5 12C22.5 6.20101 17.799 1.5 12 1.5C6.20101 1.5 1.5 6.20101 1.5 12C1.5 17.799 6.20101 22.5 12 22.5Z" fill="#344256" stroke="#344256"/>
</svg>
