<svg width="17" height="16" viewBox="0 0 17 16" fill="none" xmlns="http://www.w3.org/2000/svg">
<path d="M2.72964 7.37903L4.10097 6.13831C5.25588 7.8178 6.58525 8.74193 8.52794 8.74193C10.2278 8.74193 11.3071 8.16494 13.0472 6.46481C14.005 6.94369 15.9466 8.28018 16.0511 9.79517C16.2078 13.1386 12.503 14.6275 10.6311 14.954C8.97678 15.2369 5.08048 15.3196 2.72964 13.3867C-0.208907 10.9706 1.35832 8.94625 1.94603 7.90144C2.4162 7.06558 2.66434 7.20489 2.72964 7.37903Z" stroke="url(#paint0_linear_599_738)"/>
<path d="M12.8735 4.50578C12.8735 6.68574 10.9674 8.51155 8.54127 8.51155C6.11509 8.51155 4.20898 6.68574 4.20898 4.50578C4.20898 2.32582 6.11509 0.5 8.54127 0.5C10.9674 0.5 12.8735 2.32582 12.8735 4.50578Z" stroke="url(#paint1_linear_599_738)"/>
<mask id="path-3-inside-1_599_738" fill="white">
<ellipse cx="7.90458" cy="4.83635" rx="0.848914" ry="0.783613"/>
</mask>
<ellipse cx="7.90458" cy="4.83635" rx="0.848914" ry="0.783613" fill="url(#paint2_linear_599_738)"/>
<path d="M7.75349 4.83635C7.75349 4.74941 7.79362 4.68606 7.82657 4.65564C7.85818 4.62647 7.8883 4.61996 7.90458 4.61996V6.61996C8.84883 6.61996 9.75349 5.89527 9.75349 4.83635H7.75349ZM7.90458 4.61996C7.92086 4.61996 7.95098 4.62647 7.98259 4.65564C8.01554 4.68606 8.05566 4.74941 8.05566 4.83635H6.05566C6.05566 5.89527 6.96032 6.61996 7.90458 6.61996V4.61996ZM8.05566 4.83635C8.05566 4.92328 8.01554 4.98663 7.98259 5.01705C7.95098 5.04623 7.92086 5.05273 7.90458 5.05273V3.05273C6.96032 3.05273 6.05566 3.77743 6.05566 4.83635H8.05566ZM7.90458 5.05273C7.8883 5.05273 7.85818 5.04623 7.82657 5.01705C7.79362 4.98663 7.75349 4.92328 7.75349 4.83635H9.75349C9.75349 3.77743 8.84883 3.05273 7.90458 3.05273V5.05273Z" fill="url(#paint3_linear_599_738)" mask="url(#path-3-inside-1_599_738)"/>
<mask id="path-5-inside-2_599_738" fill="white">
<ellipse cx="11.5781" cy="4.83635" rx="0.522409" ry="0.783613"/>
</mask>
<ellipse cx="11.5781" cy="4.83635" rx="0.522409" ry="0.783613" fill="url(#paint4_linear_599_738)"/>
<path d="M11.1005 4.83635C11.1005 4.88285 11.0861 4.87971 11.1154 4.83575C11.1401 4.79877 11.2839 4.61996 11.5781 4.61996V6.61996C12.1607 6.61996 12.5658 6.26574 12.7795 5.94515C12.9979 5.61757 13.1005 5.22263 13.1005 4.83635H11.1005ZM11.5781 4.61996C11.8722 4.61996 12.0161 4.79877 12.0407 4.83575C12.07 4.87971 12.0557 4.88285 12.0557 4.83635H10.0557C10.0557 5.22263 10.1582 5.61757 10.3766 5.94515C10.5904 6.26574 10.9954 6.61996 11.5781 6.61996V4.61996ZM12.0557 4.83635C12.0557 4.78985 12.07 4.79298 12.0407 4.83695C12.0161 4.87393 11.8722 5.05273 11.5781 5.05273V3.05273C10.9954 3.05273 10.5904 3.40696 10.3766 3.72755C10.1582 4.05513 10.0557 4.45007 10.0557 4.83635H12.0557ZM11.5781 5.05273C11.2839 5.05273 11.1401 4.87393 11.1154 4.83695C11.0861 4.79298 11.1005 4.78985 11.1005 4.83635H13.1005C13.1005 4.45007 12.9979 4.05513 12.7795 3.72755C12.5658 3.40696 12.1607 3.05273 11.5781 3.05273V5.05273Z" fill="url(#paint5_linear_599_738)" mask="url(#path-5-inside-2_599_738)"/>
<path d="M8.38259 6.44203C9.27068 5.60617 9.88452 5.17954 10.0804 5.0707C10.3416 5.01846 10.494 5.09247 10.5375 5.136L11.9742 6.05022C12.1265 6.05022 12.3007 6.1547 11.7782 6.57263C11.1252 7.09504 9.81921 7.16034 8.9703 7.09504C8.12139 7.02974 7.72958 6.96443 8.38259 6.44203Z" fill="url(#paint6_linear_599_738)"/>
<path d="M3.61213 10.9722L3.86564 11.4031L3.61213 10.9722ZM2.78432 7.26582L3.08542 6.86665L2.7554 6.61771L2.44886 6.89505L2.78432 7.26582ZM1.31204 11.6498L0.863714 11.8712L0.999973 12.1472L1.30773 12.1498L1.31204 11.6498ZM1.79378 8.09887L1.36356 7.84409L1.79378 8.09887ZM1.94605 7.83768L2.38184 8.08281V8.08281L1.94605 7.83768ZM2.72966 7.31527L2.2615 7.49083L2.51974 8.17947L3.06512 7.68604L2.72966 7.31527ZM3.86564 11.4031C4.39682 11.0907 4.73128 10.6775 4.85563 10.1867C4.97658 9.70922 4.87927 9.23423 4.70336 8.82286C4.35686 8.01258 3.63554 7.28162 3.08542 6.86665L2.48321 7.66499C2.95683 8.02225 3.53142 8.62563 3.7839 9.21605C3.90748 9.50503 3.93543 9.74698 3.88625 9.9411C3.84048 10.1218 3.70945 10.3348 3.35862 10.5412L3.86564 11.4031ZM1.30773 12.1498C2.03145 12.156 2.90919 11.9657 3.86564 11.4031L3.35862 10.5412C2.55274 11.0152 1.85244 11.1545 1.31635 11.1498L1.30773 12.1498ZM1.76037 11.4285C1.15465 10.2017 1.73218 9.18411 2.22399 8.35365L1.36356 7.84409C0.892868 8.63888 -0.00480235 10.1122 0.863714 11.8712L1.76037 11.4285ZM2.22399 8.35365C2.27826 8.26202 2.33289 8.16983 2.38184 8.08281L1.51026 7.59255C1.46782 7.66799 1.41922 7.75011 1.36356 7.84409L2.22399 8.35365ZM2.38184 8.08281C2.48875 7.89274 2.57254 7.77733 2.63146 7.71101C2.69447 7.64008 2.70675 7.65048 2.66372 7.66646C2.59986 7.69017 2.48874 7.69633 2.38374 7.63172C2.30034 7.58039 2.27046 7.51474 2.2615 7.49083L3.19783 7.13971C3.15621 7.02873 3.07083 6.88036 2.90784 6.78006C2.72325 6.66647 2.50848 6.65739 2.31564 6.72899C2.14364 6.79286 2.00164 6.91427 1.88386 7.04686C1.76197 7.18406 1.63844 7.36468 1.51026 7.59255L2.38184 8.08281ZM3.06512 7.68604L3.11977 7.63659L2.44886 6.89505L2.39421 6.9445L3.06512 7.68604Z" fill="url(#paint7_linear_599_738)"/>
<defs>
<linearGradient id="paint0_linear_599_738" x1="8.52794" y1="6.13831" x2="8.52794" y2="15.1055" gradientUnits="userSpaceOnUse">
<stop stop-color="#FBA300"/>
<stop offset="1" stop-color="#E36F00"/>
</linearGradient>
<linearGradient id="paint1_linear_599_738" x1="9.69938" y1="0.195904" x2="7.39639" y2="8.81565" gradientUnits="userSpaceOnUse">
<stop stop-color="#FFE58B"/>
<stop offset="1" stop-color="#FBA300"/>
</linearGradient>
<linearGradient id="paint2_linear_599_738" x1="8.10803" y1="4.0868" x2="7.711" y2="5.58789" gradientUnits="userSpaceOnUse">
<stop stop-color="#FFE58B"/>
<stop offset="1" stop-color="#FBA300"/>
</linearGradient>
<linearGradient id="paint3_linear_599_738" x1="8.10803" y1="4.0868" x2="7.711" y2="5.58789" gradientUnits="userSpaceOnUse">
<stop stop-color="#FFE58B"/>
<stop offset="1" stop-color="#FBA300"/>
</linearGradient>
<linearGradient id="paint4_linear_599_738" x1="11.7033" y1="4.0868" x2="11.1206" y2="5.44247" gradientUnits="userSpaceOnUse">
<stop stop-color="#FFE58B"/>
<stop offset="1" stop-color="#FBA300"/>
</linearGradient>
<linearGradient id="paint5_linear_599_738" x1="11.7033" y1="4.0868" x2="11.1206" y2="5.44247" gradientUnits="userSpaceOnUse">
<stop stop-color="#FFE58B"/>
<stop offset="1" stop-color="#FBA300"/>
</linearGradient>
<linearGradient id="paint6_linear_599_738" x1="10.5806" y1="5.09759" x2="10.2801" y2="7.16834" gradientUnits="userSpaceOnUse">
<stop stop-color="#FFE58B"/>
<stop offset="1" stop-color="#FBA300"/>
</linearGradient>
<linearGradient id="paint7_linear_599_738" x1="2.7046" y1="7.18311" x2="2.7046" y2="11.6498" gradientUnits="userSpaceOnUse">
<stop stop-color="#FBA300"/>
<stop offset="1" stop-color="#E36F00"/>
</linearGradient>
</defs>
</svg>
