<svg width="12" height="12" viewBox="0 0 12 12" fill="none" xmlns="http://www.w3.org/2000/svg">
<g opacity="0.6" clipPath="url(#clip0_514_52)">
<path d="M10.4999 1L9.49989 2M9.49989 2L10.9999 3.5L9.24989 5.25L7.74989 3.75M9.49989 2L7.74989 3.75M5.69489 5.805C5.95306 6.05973 6.15829 6.36302 6.29877 6.6974C6.43925 7.03177 6.51219 7.39063 6.51341 7.75332C6.51462 8.116 6.44408 8.47534 6.30585 8.81065C6.16762 9.14596 5.96442 9.45061 5.70797 9.70707C5.45151 9.96353 5.14685 10.1667 4.81154 10.305C4.47623 10.4432 4.11689 10.5137 3.75421 10.5125C3.39153 10.5113 3.03266 10.4384 2.69829 10.2979C2.36391 10.1574 2.06063 9.95217 1.80589 9.694C1.30496 9.17534 1.02777 8.48069 1.03404 7.75965C1.04031 7.03861 1.32952 6.34887 1.83939 5.839C2.34926 5.32913 3.039 5.03991 3.76004 5.03365C4.48108 5.02738 5.17574 5.30457 5.69439 5.8055L5.69489 5.805ZM5.69489 5.805L7.74989 3.75" stroke="#344256" strokeWidth="1.5" strokeLinecap="round" strokeLinejoin="round"/>
</g>
<defs>
<clipPath id="clip0_514_52">
<rect width="12" height="12" fill="white"/>
</clipPath>
</defs>
</svg>
