<svg width="282" height="204" viewBox="0 0 282 204" fill="none" xmlns="http://www.w3.org/2000/svg">
<ellipse cx="126.912" cy="60.1789" rx="4.35821" ry="16.7653" transform="rotate(58.9177 126.912 60.1789)" fill="#D9D9D9"/>
<ellipse cx="168.607" cy="81.2904" rx="6.70155" ry="18.5" transform="rotate(58.9177 168.607 81.2904)" fill="#D9D9D9"/>
<ellipse cx="194.14" cy="142.3" rx="5.09616" ry="17.7545" transform="rotate(58.9177 194.14 142.3)" fill="#D9D9D9"/>
<ellipse cx="132.834" cy="109.717" rx="4.69718" ry="12.9668" transform="rotate(58.9177 132.834 109.717)" fill="#D9D9D9"/>
<ellipse cx="232.834" cy="128.717" rx="4.69718" ry="12.9668" transform="rotate(58.9177 232.834 128.717)" fill="#D9D9D9"/>
<ellipse cx="255.753" cy="27.9571" rx="4.52986" ry="13.7091" transform="rotate(58.9177 255.753 27.9571)" fill="#D9D9D9"/>
<ellipse cx="38.6071" cy="122.29" rx="6.70155" ry="18.5" transform="rotate(58.9177 38.6071 122.29)" fill="#D9D9D9"/>
<ellipse cx="231.607" cy="76.2904" rx="6.70155" ry="18.5" transform="rotate(58.9177 231.607 76.2904)" fill="#D9D9D9"/>
<ellipse cx="84.0381" cy="29.1131" rx="4.91437" ry="12.1166" transform="rotate(58.9177 84.0381 29.1131)" fill="#D9D9D9"/>
<ellipse cx="23.4204" cy="136.796" rx="8.51218" ry="22.2154" transform="rotate(58.9177 23.4204 136.796)" fill="#D9D9D9"/>
<g filter="url(#filter0_f_599_498)">
<path d="M88.3037 189.5C88.3037 187.567 89.8707 186 91.8037 186H131.804C133.737 186 135.304 187.567 135.304 189.5C135.304 191.433 133.737 193 131.804 193H91.8037C89.8707 193 88.3037 191.433 88.3037 189.5Z" fill="url(#paint0_linear_599_498)"/>
</g>
<g filter="url(#filter1_d_599_498)">
<path d="M104.484 183.03C106.722 180.956 108.856 176.319 109.644 174.26C110.341 173.645 111.703 172.94 111.268 175.68C110.833 178.42 112.006 182.841 113.589 184.917C115.173 186.992 118.593 189.183 117.125 189.486C115.656 189.79 113.253 188.19 111.087 189.109C108.921 190.027 108.659 190.011 106.493 188.821C104.328 187.632 102.547 188.707 99.7746 188.797C97.0018 188.887 101.686 185.622 104.484 183.03Z" fill="url(#paint1_linear_599_498)"/>
<path d="M114.615 183.268C113.998 181.332 116.081 177.386 117.199 175.655C117.926 174.559 119.36 173.129 119.275 176.18C119.168 179.995 124.147 182.546 128.216 184.909C132.285 187.272 134.959 186.648 134.36 187.797C133.761 188.945 131.259 186.812 129.701 188.56C128.142 190.307 129.373 189.593 124.418 188.756C119.463 187.92 118.659 190.241 117.904 189.667C117.149 189.093 115.386 185.688 114.615 183.268Z" fill="url(#paint2_linear_599_498)"/>
<path d="M96.8338 115.987C88.709 119.485 89.2481 127.021 90.5332 130.351L106.357 149.129C113.489 148.873 128.275 148.418 130.369 148.654C132.985 148.95 136.407 140.599 136.71 137.851C137.014 135.102 134.569 127.834 125.915 129.269C123.446 118.178 114.57 112.616 111.772 113.1C108.975 113.584 106.99 111.615 96.8338 115.987Z" fill="url(#paint3_linear_599_498)"/>
<path d="M104.638 114.031L96.3364 96.6661L75.5273 112.34L89.9917 125.624C90.6331 125.634 93.2606 124.851 98.6401 121.64C104.02 118.43 104.88 115.23 104.638 114.031Z" fill="#191919" stroke="#1A1A1A" strokeWidth="2" stroke-linecap="round"/>
<ellipse cx="18.065" cy="5.55307" rx="18.065" ry="5.55307" transform="matrix(0.772412 -0.588236 0.621626 0.817281 80.5078 126.427)" fill="#090909"/>
<ellipse cx="16.9611" cy="4.23185" rx="16.9611" ry="4.23185" transform="matrix(0.772412 -0.588236 0.621626 0.817281 81.4055 125.907)" fill="#2F2F2F"/>
<path d="M96.0026 96.5864C96.0187 96.6078 96.0575 96.6759 96.0396 96.8561C96.0214 97.0389 95.9482 97.2881 95.7981 97.6055C95.4986 98.2386 94.9417 99.0431 94.1517 99.968C92.5769 101.812 90.1444 104.055 87.2264 106.252C84.3083 108.449 81.4797 110.166 79.2722 111.17C78.1648 111.674 77.2376 111.987 76.5463 112.099C76.1996 112.156 75.9399 112.158 75.7592 112.124C75.581 112.092 75.5262 112.036 75.5101 112.014C75.4941 111.993 75.4552 111.925 75.4731 111.745C75.4913 111.562 75.5645 111.313 75.7146 110.995C76.0141 110.362 76.571 109.558 77.361 108.633C78.9358 106.789 81.3683 104.546 84.2863 102.349C87.2044 100.152 90.033 98.4345 92.2405 97.4307C93.3479 96.9271 94.2751 96.6143 94.9664 96.5014C95.3131 96.4448 95.5728 96.4433 95.7535 96.4764C95.9318 96.509 95.9865 96.5651 96.0026 96.5864Z" fill="#1A1A1A" stroke="#191919"/>
<path d="M84.9325 121.201C90.9054 119.843 99.1507 111.558 102.052 108.287C102.828 109.415 104.229 112.828 104.56 113.92C104.972 115.286 103.82 116.86 98.8501 120.923C94.4997 124.481 91.3345 125.088 89.6184 125.41C89.1602 124.95 87.7155 124.128 84.9325 121.201Z" fill="white" stroke="white"/>
<mask id="mask0_599_498" style="mask-type:alpha" maskUnits="userSpaceOnUse" x="73" y="95" width="40" height="37">
<path d="M104.638 114.031L96.3364 96.6661L75.5273 112.34L89.9917 125.624C90.6331 125.634 93.2606 124.851 98.6401 121.64C104.02 118.43 104.88 115.23 104.638 114.031Z" fill="#191919" stroke="#1A1A1A" strokeWidth="2" stroke-linecap="round"/>
<ellipse cx="18.065" cy="5.55307" rx="18.065" ry="5.55307" transform="matrix(0.772412 -0.588236 0.621626 0.817281 80.5078 126.427)" fill="#090909"/>
<ellipse cx="16.9611" cy="4.23185" rx="16.9611" ry="4.23185" transform="matrix(0.772412 -0.588236 0.621626 0.817281 81.4055 125.907)" fill="#2F2F2F"/>
<path d="M96.0026 96.5864C96.0187 96.6078 96.0575 96.6759 96.0396 96.8561C96.0214 97.0389 95.9482 97.2881 95.7981 97.6055C95.4986 98.2386 94.9417 99.0431 94.1517 99.968C92.5769 101.812 90.1444 104.055 87.2264 106.252C84.3083 108.449 81.4797 110.166 79.2722 111.17C78.1648 111.674 77.2376 111.987 76.5463 112.099C76.1996 112.156 75.9399 112.158 75.7592 112.124C75.581 112.092 75.5262 112.036 75.5101 112.014C75.4941 111.993 75.4552 111.925 75.4731 111.745C75.4913 111.562 75.5645 111.313 75.7146 110.995C76.0141 110.362 76.571 109.558 77.361 108.633C78.9358 106.789 81.3683 104.546 84.2863 102.349C87.2044 100.152 90.033 98.4345 92.2405 97.4307C93.3479 96.9271 94.2751 96.6143 94.9664 96.5014C95.3131 96.4448 95.5728 96.4433 95.7535 96.4764C95.9318 96.509 95.9865 96.5651 96.0026 96.5864Z" fill="#1A1A1A" stroke="#191919"/>
<path d="M84.9325 121.201C90.9054 119.843 99.1507 111.558 102.052 108.287C102.828 109.415 104.229 112.828 104.56 113.92C104.972 115.286 103.82 116.86 98.8501 120.923C94.4997 124.481 91.3345 125.088 89.6184 125.41C89.1602 124.95 87.7155 124.128 84.9325 121.201Z" fill="white" stroke="white"/>
</mask>
<g mask="url(#mask0_599_498)">
<g filter="url(#filter2_f_599_498)">
<path d="M96.603 114.546L81.0649 100.694L69.1086 105.257C71.1094 111.998 75.1781 125.813 75.4463 127.141C75.7144 128.469 77.896 134.297 78.9533 137.045L99.9273 131.006L98.9276 120.629L97.2735 117.866L96.603 114.546Z" fill="#575757" fill-opacity="0.29" style="mix-blend-mode:multiply"/>
</g>
</g>
<mask id="mask1_599_498" style="mask-type:alpha" maskUnits="userSpaceOnUse" x="73" y="95" width="40" height="37">
<path d="M104.638 114.031L96.3364 96.6661L75.5273 112.34L89.9917 125.624C90.6331 125.634 93.2606 124.851 98.6401 121.64C104.02 118.43 104.88 115.23 104.638 114.031Z" fill="#191919" stroke="#1A1A1A" strokeWidth="2" strokeLinecap="round"/>
<ellipse cx="18.065" cy="5.55307" rx="18.065" ry="5.55307" transform="matrix(0.772412 -0.588236 0.621626 0.817281 80.5078 126.427)" fill="#090909"/>
<ellipse cx="16.9611" cy="4.23185" rx="16.9611" ry="4.23185" transform="matrix(0.772412 -0.588236 0.621626 0.817281 81.4055 125.907)" fill="#2F2F2F"/>
<path d="M96.0026 96.5864C96.0187 96.6078 96.0575 96.6759 96.0396 96.8561C96.0214 97.0389 95.9482 97.2881 95.7981 97.6055C95.4986 98.2386 94.9417 99.0431 94.1517 99.968C92.5769 101.812 90.1444 104.055 87.2264 106.252C84.3083 108.449 81.4797 110.166 79.2722 111.17C78.1648 111.674 77.2376 111.987 76.5463 112.099C76.1996 112.156 75.9399 112.158 75.7592 112.124C75.581 112.092 75.5262 112.036 75.5101 112.014C75.4941 111.993 75.4552 111.925 75.4731 111.745C75.4913 111.562 75.5645 111.313 75.7146 110.995C76.0141 110.362 76.571 109.558 77.361 108.633C78.9358 106.789 81.3683 104.546 84.2863 102.349C87.2044 100.152 90.033 98.4345 92.2405 97.4307C93.3479 96.9271 94.2751 96.6143 94.9664 96.5014C95.3131 96.4448 95.5728 96.4433 95.7535 96.4764C95.9318 96.509 95.9865 96.5651 96.0026 96.5864Z" fill="#1A1A1A" stroke="#191919"/>
<path d="M84.9325 121.201C90.9054 119.843 99.1507 111.558 102.052 108.287C102.828 109.415 104.229 112.828 104.56 113.92C104.972 115.286 103.82 116.86 98.8501 120.923C94.4997 124.481 91.3345 125.088 89.6184 125.41C89.1602 124.95 87.7155 124.128 84.9325 121.201Z" fill="white" stroke="white"/>
<mask id="mask2_599_498" style="mask-type:alpha" maskUnits="userSpaceOnUse" x="73" y="95" width="40" height="37">
<path d="M104.638 114.031L96.3364 96.6661L75.5273 112.34L89.9917 125.624C90.6331 125.634 93.2606 124.851 98.6401 121.64C104.02 118.43 104.88 115.23 104.638 114.031Z" fill="#191919" stroke="#1A1A1A" strokeWidth="2" strokeLinecap="round"/>
<ellipse cx="18.065" cy="5.55307" rx="18.065" ry="5.55307" transform="matrix(0.772412 -0.588236 0.621626 0.817281 80.5078 126.427)" fill="#090909"/>
<ellipse cx="16.9611" cy="4.23185" rx="16.9611" ry="4.23185" transform="matrix(0.772412 -0.588236 0.621626 0.817281 81.4055 125.907)" fill="#2F2F2F"/>
<path d="M96.0026 96.5864C96.0187 96.6078 96.0575 96.6759 96.0396 96.8561C96.0214 97.0389 95.9482 97.2881 95.7981 97.6055C95.4986 98.2386 94.9417 99.0431 94.1517 99.968C92.5769 101.812 90.1444 104.055 87.2264 106.252C84.3083 108.449 81.4797 110.166 79.2722 111.17C78.1648 111.674 77.2376 111.987 76.5463 112.099C76.1996 112.156 75.9399 112.158 75.7592 112.124C75.581 112.092 75.5262 112.036 75.5101 112.014C75.4941 111.993 75.4552 111.925 75.4731 111.745C75.4913 111.562 75.5645 111.313 75.7146 110.995C76.0141 110.362 76.571 109.558 77.361 108.633C78.9358 106.789 81.3683 104.546 84.2863 102.349C87.2044 100.152 90.033 98.4345 92.2405 97.4307C93.3479 96.9271 94.2751 96.6143 94.9664 96.5014C95.3131 96.4448 95.5728 96.4433 95.7535 96.4764C95.9318 96.509 95.9865 96.5651 96.0026 96.5864Z" fill="#1A1A1A" stroke="#191919"/>
<path d="M84.9325 121.201C90.9054 119.843 99.1507 111.558 102.052 108.287C102.828 109.415 104.229 112.828 104.56 113.92C104.972 115.286 103.82 116.86 98.8501 120.923C94.4997 124.481 91.3345 125.088 89.6184 125.41C89.1602 124.95 87.7155 124.128 84.9325 121.201Z" fill="white" stroke="white"/>
</mask>
<g mask="url(#mask2_599_498)">
<path d="M96.603 114.546L81.0649 100.694L69.1086 105.257C71.1094 111.998 75.1781 125.813 75.4463 127.141C75.7144 128.469 77.896 134.297 78.9533 137.045L99.9273 131.006L98.9276 120.629L97.2735 117.866L96.603 114.546Z" fill="#575757" fill-opacity="0.29"/>
</g>
</mask>
<g mask="url(#mask1_599_498)">
<rect x="63.6674" y="113.235" width="46.3509" height="34.021" transform="rotate(-37.0644 63.6674 113.235)" fill="url(#paint4_linear_599_498)" style="mix-blend-mode:soft-light"/>
</g>
<path d="M61.5919 114.838C69.6381 105.854 94.9996 133.927 106.405 148.915C102.295 153.534 103.043 155.774 104.011 161.369C104.785 165.845 103.168 167.817 102.263 168.243C101.959 168.181 100.526 167.792 97.2179 166.742C93.0834 165.429 72.8623 153.755 64.2078 148.866C55.5533 143.976 51.5341 126.068 61.5919 114.838Z" fill="url(#paint5_linear_599_498)"/>
<g filter="url(#filter3_d_599_498)">
<path d="M142.125 133.446C137.964 135.926 132.592 144.006 130.426 147.736L135.331 162.01C135.468 161.93 136.563 162.087 139.86 161.239C143.881 160.204 145.758 155.414 159.827 147.466C173.896 139.517 175.718 125.136 173.635 116.309C171.551 107.483 156.415 117.736 152.691 120.402C148.967 123.068 147.326 130.345 142.125 133.446Z" fill="url(#paint6_linear_599_498)"/>
</g>
<path fill-rule="evenodd" clip-rule="evenodd" d="M114.323 132.364C113.965 132.482 113.628 132.554 113.322 132.567C112.819 132.588 112.204 132.539 111.535 132.486C108.863 132.272 105.32 131.989 104.553 135.84C103.967 138.776 105.117 139.812 106.188 140.269L105.988 140.278C107.801 142.192 111.968 146.213 114.134 146.98C116.841 147.94 123.207 149.393 126.152 144.438C127.767 142.22 128.591 140.549 128.802 139.992L128.771 139.986C128.812 139.888 128.833 139.76 128.827 139.598C128.817 139.344 128.856 139.016 128.901 138.64C129.088 137.058 129.376 134.635 126.579 133.396C125.979 132.896 125.983 132.191 125.987 131.473C125.988 131.288 125.989 131.102 125.98 130.919C125.807 127.468 121.642 129.283 117.761 130.974C116.543 131.505 115.353 132.024 114.323 132.364Z" fill="#EA6348"/>
<path d="M118.072 134.577C115.632 135.302 111.579 135.227 108.62 135C107.065 134.881 105.074 135.312 105.242 136.862C105.678 140.878 115.193 147.002 119.794 147.071C125.323 147.153 127.801 139.138 127.67 137.022C127.539 134.905 122.1 133.379 118.072 134.577Z" fill="#D44A02"/>
<ellipse cx="107.142" cy="127.596" rx="2.23569" ry="3.5508" transform="rotate(-31.7414 107.142 127.596)" fill="black"/>
<ellipse cx="118.119" cy="124.857" rx="2.23569" ry="3.5508" transform="rotate(-31.7414 118.119 124.857)" fill="#404040"/>
<ellipse cx="117.131" cy="124.82" rx="0.734348" ry="0.776292" transform="rotate(-31.7414 117.131 124.82)" fill="white"/>
<ellipse cx="105.944" cy="127.627" rx="0.734348" ry="0.874892" transform="rotate(-31.7414 105.944 127.627)" fill="white"/>
<path d="M132.362 148.384C124.71 144.321 111.678 146.915 106.119 148.719C98.4488 153.378 101.246 165.544 101.779 169.662C102.312 173.781 106.799 175.774 113.05 176.956C119.301 178.137 131.96 167.465 133.51 165.849C135.061 164.233 141.927 153.462 132.362 148.384Z" fill="url(#paint7_radial_599_498)"/>
</g>
<ellipse cx="197.75" cy="141.089" rx="5.08022" ry="13.9312" transform="rotate(58.9177 197.75 141.089)" fill="#FFE657"/>
<path d="M184.052 145.286C183.766 144.804 183.932 144.182 184.419 143.906L207.849 130.629L209.524 133.59C209.796 134.07 209.627 134.681 209.146 134.953L185.766 148.179L184.052 145.286Z" fill="#FFE657"/>
<path d="M198.256 141.729C194.976 143.706 191.734 145.003 189.156 145.512C187.865 145.767 186.768 145.819 185.928 145.678C185.085 145.537 184.567 145.217 184.309 144.789C184.051 144.36 184.009 143.753 184.278 142.942C184.546 142.133 185.104 141.187 185.932 140.164C187.586 138.123 190.246 135.861 193.527 133.884C196.807 131.906 200.049 130.61 202.626 130.101C203.917 129.846 205.014 129.794 205.855 129.935C206.698 130.076 207.216 130.396 207.474 130.824C207.732 131.253 207.773 131.86 207.504 132.671C207.236 133.48 206.678 134.426 205.85 135.449C204.197 137.49 201.536 139.752 198.256 141.729Z" fill="#FFFCAE" stroke="#FFE657"/>
<path d="M192.579 138.606L192.49 138.599C192.461 138.597 192.435 138.592 192.409 138.586L192.297 139.041L192.409 138.586C192.305 138.56 192.175 138.493 192.03 138.346C191.96 138.276 191.909 138.156 191.918 137.946C191.923 137.842 191.942 137.728 191.974 137.612C191.986 137.863 192.064 138.142 192.281 138.362L192.637 138.011L192.281 138.362C192.381 138.462 192.48 138.543 192.579 138.606ZM192.924 140.488C192.782 140.264 192.734 139.947 192.837 139.535C192.841 139.831 192.915 140.121 193.083 140.388C193.251 140.654 193.48 140.845 193.743 140.976C193.335 140.892 193.065 140.712 192.924 140.488ZM200.116 135.944C200.258 136.168 200.304 136.489 200.205 136.894C200.2 136.599 200.125 136.311 199.957 136.045C199.789 135.779 199.56 135.588 199.297 135.456C199.707 135.54 199.975 135.721 200.116 135.944ZM193.122 136.286C193.168 136.315 193.215 136.342 193.263 136.366C193.179 136.35 193.099 136.329 193.023 136.303C193.074 136.288 193.106 136.286 193.122 136.286ZM193.213 136.845L193.108 136.718L193.22 136.839L193.217 136.841L193.215 136.843L193.214 136.844L193.214 136.844L193.214 136.845L193.213 136.845L193.213 136.845ZM193.134 136.287C193.134 136.287 193.134 136.287 193.132 136.287C193.134 136.287 193.134 136.287 193.134 136.287ZM195.639 138.058C195.616 138.072 195.593 138.086 195.569 138.1C195.592 138.084 195.614 138.069 195.637 138.055C195.658 138.041 195.68 138.028 195.7 138.015C195.681 138.03 195.66 138.044 195.639 138.058ZM194.768 138.361C194.768 138.361 194.77 138.361 194.773 138.362C194.769 138.362 194.768 138.361 194.768 138.361ZM194.99 138.706C194.99 138.709 194.989 138.711 194.989 138.711C194.989 138.711 194.989 138.709 194.99 138.706ZM196.01 137.568C196.01 137.568 196.01 137.569 196.01 137.57C196.01 137.569 196.01 137.568 196.01 137.568Z" fill="#344256" stroke="#FFE657"/>
<path d="M185.806 145.925L187.514 148.749" stroke="#FFF3B1" stroke-linecap="round"/>
<path d="M187.322 145.925L189.03 148.749" stroke="#FFF3B1" stroke-linecap="round"/>
<path d="M189.597 145.925L191.304 148.749" stroke="#FFF3B1" stroke-linecap="round"/>
<path d="M191.871 145.167L193.579 147.991" stroke="#FFF3B1" stroke-linecap="round"/>
<path d="M194.145 144.409L195.853 147.233" stroke="#FFF3B1" stroke-linecap="round"/>
<path d="M195.661 143.651L197.369 146.475" stroke="#FFF3B1" stroke-linecap="round"/>
<path d="M197.935 142.135L199.643 144.959" stroke="#FFF3B1" stroke-linecap="round"/>
<path d="M200.21 140.619L201.917 143.443" stroke="#FFF3B1" stroke-linecap="round"/>
<path d="M202.484 139.103L204.192 141.927" stroke="#FFF3B1" stroke-linecap="round"/>
<path d="M204 137.586L205.708 140.411" stroke="#FFF3B1" stroke-linecap="round"/>
<path d="M205.516 136.07L207.224 138.895" stroke="#FFF3B1" stroke-linecap="round"/>
<path d="M207.032 134.554L208.74 137.378" stroke="#FFF3B1" stroke-linecap="round"/>
<path d="M207.79 133.038L209.498 135.862" stroke="#FFF3B1" stroke-linecap="round"/>
<ellipse cx="85.5626" cy="27.7673" rx="4.09841" ry="11.2389" transform="rotate(58.9177 85.5626 27.7673)" fill="#FFE657"/>
<path d="M74.6122 31.3227C74.3268 30.841 74.4924 30.219 74.9795 29.943L93.71 19.329L94.966 21.5491C95.2379 22.0298 95.0687 22.64 94.588 22.9119L75.8944 33.4871L74.6122 31.3227Z" fill="#FFE657"/>
<path d="M85.9209 28.2008C83.2816 29.7919 80.6768 30.8328 78.611 31.2407C77.5759 31.445 76.7037 31.4849 76.0412 31.3741C75.3765 31.2629 74.9901 31.0141 74.8019 30.7019C74.6137 30.3897 74.5741 29.9319 74.7862 29.2921C74.9975 28.6545 75.44 27.9019 76.1041 27.082C77.4294 25.4457 79.5661 23.6283 82.2055 22.0373C84.8448 20.4462 87.4496 19.4053 89.5154 18.9974C90.5505 18.7931 91.4227 18.7532 92.0852 18.864C92.75 18.9752 93.1363 19.224 93.3245 19.5362C93.5127 19.8484 93.5523 20.3062 93.3403 20.946C93.1289 21.5836 92.6864 22.3362 92.0223 23.1561C90.697 24.7924 88.5603 26.6098 85.9209 28.2008Z" fill="#FFFCAE" stroke="#FFE657"/>
<path d="M81.9191 24.3632L81.8476 24.2766L81.9291 24.3649C81.9257 24.3643 81.9224 24.3638 81.9191 24.3632Z" fill="#344256" stroke="#FFE657"/>
<path d="M75.9272 31.6687L77.305 33.9473" stroke="#FFF3B1" stroke-linecap="round"/>
<path d="M77.1503 31.6687L78.5281 33.9473" stroke="#FFF3B1" stroke-linecap="round"/>
<path d="M78.985 31.6687L80.3628 33.9473" stroke="#FFF3B1" stroke-linecap="round"/>
<path d="M80.8197 31.0571L82.1975 33.3357" stroke="#FFF3B1" stroke-linecap="round"/>
<path d="M82.6544 30.4456L84.0322 32.7241" stroke="#FFF3B1" stroke-linecap="round"/>
<path d="M83.8775 29.834L85.2553 32.1126" stroke="#FFF3B1" stroke-linecap="round"/>
<path d="M85.7122 28.6108L87.09 30.8894" stroke="#FFF3B1" stroke-linecap="round"/>
<path d="M87.5469 27.3877L88.9247 29.6663" stroke="#FFF3B1" stroke-linecap="round"/>
<path d="M89.3816 26.1646L90.7593 28.4431" stroke="#FFF3B1" stroke-linecap="round"/>
<path d="M90.6047 24.9414L91.9825 27.22" stroke="#FFF3B1" stroke-linecap="round"/>
<path d="M91.8278 23.7183L93.2056 25.9968" stroke="#FFF3B1" stroke-linecap="round"/>
<path d="M93.0509 22.4951L94.4287 24.7737" stroke="#FFF3B1" stroke-linecap="round"/>
<path d="M93.6625 21.2722L95.0403 23.5508" stroke="#FFF3B1" stroke-linecap="round"/>
<ellipse cx="237.059" cy="70.6208" rx="6.70155" ry="18.3773" transform="rotate(58.9177 237.059 70.6208)" fill="#FFE657"/>
<path d="M218.823 75.8771C218.538 75.3955 218.704 74.7734 219.191 74.4974L250.381 56.8225L252.748 61.0057C253.02 61.4864 252.851 62.0965 252.37 62.3685L221.25 79.9734L218.823 75.8771Z" fill="#FFE657"/>
<path d="M237.809 71.6015C233.47 74.217 229.176 75.9359 225.754 76.6117C224.04 76.9501 222.573 77.0214 221.438 76.8316C220.301 76.6414 219.565 76.2032 219.192 75.5832C218.818 74.9632 218.774 74.1083 219.136 73.014C219.498 71.922 220.247 70.6575 221.346 69.3002C223.542 66.5891 227.067 63.5947 231.406 60.9792C235.745 58.3637 240.038 56.6448 243.461 55.969C245.175 55.6306 246.642 55.5593 247.777 55.7491C248.914 55.9393 249.649 56.3775 250.023 56.9975C250.397 57.6175 250.441 58.4724 250.078 59.5667C249.716 60.6587 248.968 61.9232 247.869 63.2805C245.673 65.9916 242.148 68.986 237.809 71.6015Z" fill="#FFFCAE" stroke="#FFE657"/>
<path d="M230.767 67.5472L230.107 67.495C230.061 67.4913 230.017 67.4838 229.976 67.4737C229.804 67.4315 229.608 67.3256 229.4 67.1149C229.267 66.9804 229.194 66.7717 229.207 66.4681C229.22 66.1632 229.321 65.8156 229.469 65.4933C229.57 65.2749 229.701 65.0502 229.858 64.8479C229.716 65.1596 229.613 65.5134 229.599 65.858C229.584 66.2062 229.66 66.6088 229.959 66.9114L230.315 66.5599L229.959 66.9114C230.177 67.1319 230.393 67.2711 230.589 67.3484L230.892 67.4682L230.983 67.3786C230.677 68.1315 230.615 68.9412 231.038 69.6102C231.524 70.3801 232.442 70.6498 233.395 70.6238C233.226 70.6508 233.061 70.6704 232.901 70.6828C231.692 70.7763 230.899 70.4534 230.558 69.9135C230.297 69.5003 230.262 68.9094 230.537 68.1673L230.767 67.5472ZM230.458 64.329L230.429 64.3163C230.432 64.314 230.436 64.3117 230.44 64.3094L230.458 64.329ZM230.449 64.311L230.444 64.3066C230.444 64.3066 230.444 64.3065 230.444 64.3065C230.449 64.3038 230.453 64.301 230.458 64.2983L230.501 64.348L230.475 64.3364L230.449 64.311ZM230.301 64.1602L230.301 64.1596L230.37 64.2335L230.298 64.1632L230.298 64.1632L230.298 64.1631L230.298 64.1629L230.299 64.1625L230.299 64.1617L230.301 64.1602ZM230.528 64.3598L230.471 64.2904C230.471 64.2904 230.471 64.2904 230.471 64.2904L230.529 64.3599L230.528 64.3598ZM230.565 64.3756L230.481 64.2846C230.538 64.2517 230.599 64.2212 230.663 64.1951C230.893 64.101 230.996 64.127 231.012 64.1321C231.488 64.4474 232.104 64.5428 232.61 64.5393L232.434 64.5662C232.255 64.5936 232.068 64.6091 231.883 64.6122L231.89 64.9999L231.883 64.6122C231.431 64.6197 230.973 64.5535 230.613 64.3968L230.565 64.3756ZM233.754 64.3644L233.537 64.3975L233.578 64.3715C233.664 64.3172 233.797 64.239 233.932 64.194C233.948 64.1886 233.965 64.1835 233.982 64.1791C233.955 64.1956 233.927 64.2122 233.9 64.229L233.831 64.2716L233.779 64.3338C233.771 64.344 233.762 64.3542 233.754 64.3644ZM237.479 63.0382C237.729 62.9982 237.971 62.9743 238.201 62.9664C239.287 62.9291 239.997 63.2445 240.316 63.7486C240.657 64.2885 240.608 65.1438 240.004 66.1955C239.924 66.3347 239.836 66.4752 239.739 66.6162C240.172 65.7665 240.322 64.8218 239.836 64.0518C239.349 63.2817 238.431 63.0122 237.479 63.0382ZM230.973 64.8988L230.888 64.7954L230.979 64.8941L230.977 64.8954L230.975 64.8971L230.974 64.898L230.974 64.8984L230.973 64.8987L230.973 64.8988L230.973 64.8988ZM234.36 66.7567C234.084 66.9312 233.733 67.0771 233.442 67.1451C233.628 66.9111 233.911 66.6574 234.187 66.483C234.471 66.3034 234.714 66.182 234.893 66.1251C234.884 66.1503 234.873 66.1776 234.859 66.2069C234.772 66.3924 234.603 66.6027 234.36 66.7567ZM233.096 67.1786C233.096 67.1785 233.099 67.1789 233.103 67.1802C233.098 67.1794 233.096 67.1787 233.096 67.1786ZM233.265 67.4361C233.264 67.4404 233.263 67.4428 233.263 67.4429C233.263 67.443 233.263 67.4408 233.265 67.4361ZM234.923 65.9643C234.923 65.9643 234.923 65.9648 234.923 65.9658L234.923 65.9643Z" fill="#344256" stroke="#FFE657"/>
<path d="M221.304 77L223.557 80.7259" stroke="#FFF3B1" stroke-linecap="round"/>
<path d="M223.304 77L225.557 80.7259" stroke="#FFF3B1" stroke-linecap="round"/>
<path d="M226.304 77L228.557 80.7259" stroke="#FFF3B1" stroke-linecap="round"/>
<path d="M229.304 76L231.557 79.7259" stroke="#FFF3B1" stroke-linecap="round"/>
<path d="M232.304 75L234.557 78.7259" stroke="#FFF3B1" stroke-linecap="round"/>
<path d="M234.304 74L236.557 77.7259" stroke="#FFF3B1" stroke-linecap="round"/>
<path d="M237.304 72L239.557 75.7259" stroke="#FFF3B1" stroke-linecap="round"/>
<path d="M240.304 70L242.557 73.7259" stroke="#FFF3B1" stroke-linecap="round"/>
<path d="M243.304 68L245.557 71.7259" stroke="#FFF3B1" stroke-linecap="round"/>
<path d="M245.304 66L247.557 69.7259" stroke="#FFF3B1" stroke-linecap="round"/>
<path d="M247.304 64L249.557 67.7259" stroke="#FFF3B1" stroke-linecap="round"/>
<path d="M249.304 62L251.557 65.7259" stroke="#FFF3B1" stroke-linecap="round"/>
<path d="M250.304 60L252.557 63.7259" stroke="#FFF3B1" stroke-linecap="round"/>
<ellipse cx="130.703" cy="57.0097" rx="4.83698" ry="13.2642" transform="rotate(58.9177 130.703 57.0097)" fill="#FFE657"/>
<path d="M117.686 61.0474C117.401 60.5658 117.566 59.9437 118.053 59.6677L140.319 47.0503L141.89 49.8275C142.162 50.3082 141.993 50.9183 141.512 51.1902L119.293 63.7599L117.686 61.0474Z" fill="#FFE657"/>
<path d="M131.173 57.5983C128.051 59.48 124.967 60.7133 122.517 61.1972C121.289 61.4396 120.248 61.4884 119.451 61.3552C118.653 61.2216 118.167 60.919 117.926 60.5195C117.686 60.12 117.645 59.5495 117.899 58.7808C118.154 58.0142 118.683 57.1164 119.47 56.144C121.043 54.2027 123.573 52.0514 126.695 50.1697C129.816 48.288 132.9 47.0548 135.351 46.5708C136.579 46.3284 137.62 46.2796 138.416 46.4128C139.215 46.5465 139.7 46.849 139.941 47.2486C140.182 47.6481 140.223 48.2186 139.968 48.9873C139.714 49.7538 139.185 50.6517 138.397 51.624C136.825 53.5653 134.294 55.7166 131.173 57.5983Z" fill="#FFFCAE" stroke="#FFE657"/>
<path d="M128.629 51.9919L128.607 52.1268L128.629 51.9919ZM128.629 51.9919C128.527 51.9749 128.413 52.0017 128.332 52.0285C128.192 52.0754 128.065 52.1516 127.999 52.1938M128.629 51.9919C128.646 51.9945 128.66 51.9981 128.674 52.0025C130.662 50.8985 132.7 50.8131 133.359 51.8567C134.065 52.9739 132.924 54.962 130.81 56.2972C128.697 57.6324 126.412 57.8091 125.706 56.6918C125.511 56.3839 125.457 56.0097 125.525 55.6013L127.999 52.1938M127.999 52.1938C127.984 52.1985 127.962 52.2049 127.932 52.2118C127.829 52.236 127.683 52.2562 127.513 52.259C127.174 52.2647 126.797 52.2003 126.531 52.0207L127.999 52.1938ZM126.399 52.987L126.292 52.8565L126.406 52.981L126.403 52.9835L126.401 52.9853L126.4 52.9861L126.4 52.9866L126.399 52.9868L126.399 52.9869L126.399 52.987ZM125.175 54.0184C125.177 53.9634 125.184 53.9056 125.195 53.8461C125.227 54.0478 125.309 54.257 125.48 54.43C125.55 54.5015 125.622 54.5627 125.692 54.6144C125.668 54.6123 125.646 54.6083 125.624 54.603C125.53 54.5798 125.41 54.5188 125.274 54.3814C125.214 54.3209 125.166 54.2138 125.175 54.0184ZM132.825 52.194C132.697 51.9915 132.533 51.834 132.345 51.7144C132.633 51.8038 132.827 51.9507 132.936 52.1238C133.046 52.2967 133.095 52.5354 133.052 52.8329C133.025 52.612 132.953 52.3964 132.825 52.194ZM126.24 56.3545C126.368 56.5568 126.531 56.7143 126.719 56.8338C126.432 56.7445 126.238 56.5977 126.129 56.4248C126.019 56.2507 125.968 56.0134 126.013 55.7108C126.04 55.9337 126.111 56.1513 126.24 56.3545ZM127.868 54.3886C127.868 54.3885 127.87 54.3887 127.873 54.3893C127.869 54.389 127.868 54.3886 127.868 54.3886ZM128.099 54.7473C128.098 54.7506 128.098 54.7523 128.097 54.7524C128.097 54.7524 128.098 54.7508 128.099 54.7473Z" fill="#344256" stroke="#FFE657"/>
<path d="M119.332 61.614L120.958 64.3032" stroke="#FFF3B1" stroke-linecap="round"/>
<path d="M120.775 61.614L122.401 64.3032" stroke="#FFF3B1" stroke-linecap="round"/>
<path d="M122.94 61.614L124.567 64.3032" stroke="#FFF3B1" stroke-linecap="round"/>
<path d="M125.106 60.8921L126.732 63.5813" stroke="#FFF3B1" stroke-linecap="round"/>
<path d="M127.271 60.1704L128.897 62.8596" stroke="#FFF3B1" stroke-linecap="round"/>
<path d="M128.715 59.4487L130.341 62.1379" stroke="#FFF3B1" stroke-linecap="round"/>
<path d="M130.88 58.0051L132.506 60.6943" stroke="#FFF3B1" stroke-linecap="round"/>
<path d="M133.045 56.5615L134.671 59.2507" stroke="#FFF3B1" stroke-linecap="round"/>
<path d="M135.211 55.1179L136.837 57.8071" stroke="#FFF3B1" stroke-linecap="round"/>
<path d="M136.654 53.6746L138.28 56.3638" stroke="#FFF3B1" stroke-linecap="round"/>
<path d="M138.098 52.231L139.724 54.9202" stroke="#FFF3B1" stroke-linecap="round"/>
<path d="M139.541 50.7874L141.167 53.4766" stroke="#FFF3B1" stroke-linecap="round"/>
<path d="M140.263 49.3438L141.889 52.033" stroke="#FFF3B1" stroke-linecap="round"/>
<ellipse cx="34.499" cy="130.377" rx="9.00748" ry="24.7008" transform="rotate(58.9177 34.499 130.377)" fill="#FFE657"/>
<path d="M9.80978 137.14C9.52443 136.658 9.69005 136.036 10.1771 135.76L52.4054 111.831L55.7556 117.753C56.0275 118.233 55.8583 118.844 55.3776 119.116L13.2504 142.948L9.80978 137.14Z" fill="#FFE657"/>
<path d="M35.5958 131.842C29.7516 135.365 23.9616 137.685 19.3368 138.598C17.0223 139.055 15.0272 139.154 13.4742 138.894C11.9189 138.634 10.8744 138.028 10.3363 137.135C9.79817 136.243 9.74994 135.036 10.2461 133.539C10.7415 132.045 11.7608 130.327 13.2457 128.493C16.2127 124.83 20.9673 120.793 26.8116 117.27C32.6558 113.747 38.4458 111.428 43.0706 110.515C45.3851 110.058 47.3802 109.958 48.9332 110.218C50.4885 110.478 51.533 111.084 52.0711 111.977C52.6092 112.87 52.6574 114.076 52.1613 115.573C51.6658 117.068 50.6465 118.786 49.1617 120.619C46.1947 124.282 41.4401 128.319 35.5958 131.842Z" fill="#FFFCAE" stroke="#FFE657"/>
<path d="M25.5717 121.854L25.9178 122.23C25.8663 122.21 25.8159 122.19 25.7666 122.169L25.3509 121.988L25.1302 122.384C25.083 122.468 25.0351 122.562 24.9882 122.663L25.4287 122.867L24.9882 122.663C24.7984 123.074 24.6623 123.538 24.6437 123.982C24.6253 124.423 24.7223 124.91 25.0782 125.27L25.4338 124.919L25.0782 125.27C25.3567 125.552 25.628 125.724 25.8658 125.818L26.169 125.938L26.4009 125.709C26.5089 125.602 26.6319 125.479 26.7659 125.344C27.2249 124.879 27.7955 124.286 28.3099 123.728C28.4695 123.555 28.6197 123.39 28.7571 123.236L29.6844 122.198L28.3087 122.409C28.0596 122.447 27.8015 122.468 27.5454 122.473L27.5537 122.973L27.5454 122.473C27.0186 122.481 26.4797 122.418 26.0157 122.264L25.5732 121.782L25.8913 122.168M25.5717 121.854L25.6132 121.895L25.8044 122.082L25.5553 121.797L25.5456 121.806L25.5401 121.812L25.5372 121.815L25.5361 121.816L25.5361 121.816M25.5717 121.854L25.5361 121.816M25.5717 121.854L25.5342 121.818L25.5343 121.817L25.5344 121.817L25.5346 121.817L25.5349 121.817L25.5357 121.816L25.5361 121.816M25.5361 121.816L25.5359 121.815C25.5426 121.809 25.5491 121.803 25.5553 121.797L25.5644 121.789L25.5688 121.785L25.571 121.784L25.5721 121.783L25.5726 121.782L25.5729 121.782L25.5731 121.782L25.5731 121.782L25.8913 122.168M25.8913 122.168L25.9758 122.25C25.9758 122.25 25.9758 122.25 25.9758 122.25L25.8913 122.168ZM25.5712 127.019L25.8012 126.399L25.1418 126.347C25.0694 126.341 25.0014 126.329 24.9376 126.314C24.6706 126.248 24.3795 126.087 24.0819 125.785C23.8584 125.559 23.7541 125.225 23.773 124.788C23.792 124.349 23.9353 123.859 24.1416 123.413C24.3439 122.975 24.6352 122.514 24.9993 122.154C25.1797 121.975 25.4708 121.73 25.8372 121.581C26.2479 121.413 26.4273 121.489 26.4539 121.504C27.0695 121.917 27.8886 122.041 28.5666 122.03C28.9149 122.024 29.2228 121.983 29.4522 121.929C29.5197 121.913 29.5733 121.898 29.6138 121.885L29.6747 121.866L29.7287 121.832C29.8468 121.757 30.0395 121.643 30.2417 121.575C30.2984 121.556 30.3611 121.54 30.4217 121.53C30.4842 121.521 30.5286 121.521 30.555 121.526L30.6369 121.033L30.555 121.526C30.5621 121.527 30.5653 121.528 30.5654 121.528L30.7723 121.595L30.9625 121.49C32.761 120.491 34.5583 119.967 36.0274 119.917C37.5146 119.865 38.5462 120.295 39.0218 121.048C39.5312 121.854 39.4301 123.08 38.6066 124.514C37.7958 125.927 36.3444 127.419 34.4314 128.627C32.5184 129.836 30.5479 130.506 28.924 130.632C27.2746 130.759 26.1245 130.324 25.6152 129.518C25.2255 128.901 25.1903 128.046 25.5712 127.019ZM30.3437 121.932L30.2748 121.975L30.2228 122.037C30.0363 122.26 29.8324 122.488 29.6455 122.693C29.257 123.118 28.8016 123.594 28.3657 124.038C27.929 124.484 27.4985 124.911 27.1552 125.243C27 125.394 26.8534 125.533 26.7272 125.65L26.6561 125.716L26.6147 125.803C26.1108 126.868 25.9735 128.012 26.5513 128.926C27.2106 129.97 28.5217 130.3 29.8936 130.191C31.2899 130.081 32.8999 129.515 34.3953 128.57C35.8908 127.625 37.0935 126.415 37.7927 125.201C38.4798 124.009 38.7451 122.683 38.0858 121.639C37.4339 120.607 36.1442 120.274 34.791 120.371C33.4147 120.47 31.8264 121.015 30.3437 121.932ZM26.1516 122.483L26.2134 122.55L26.2116 122.551L26.2105 122.552L26.21 122.553L26.2097 122.553L26.2096 122.553L26.2095 122.553L26.1516 122.483ZM30.9626 125.329C30.5713 125.576 30.0758 125.782 29.6617 125.876C29.5067 125.911 29.379 125.927 29.282 125.929C29.3256 125.843 29.3949 125.734 29.4933 125.609C29.7564 125.276 30.1551 124.917 30.5464 124.67C30.9693 124.403 31.3383 124.221 31.6083 124.149C31.7038 124.123 31.7644 124.116 31.8006 124.115C31.8016 124.13 31.8016 124.149 31.7998 124.173C31.7932 124.259 31.7636 124.378 31.6982 124.517C31.5673 124.796 31.3183 125.104 30.9626 125.329ZM29.1257 125.915C29.1258 125.915 29.1277 125.915 29.1309 125.917C29.1272 125.916 29.1256 125.915 29.1257 125.915ZM29.2285 126.071C29.2285 126.075 29.2282 126.077 29.228 126.077C29.2279 126.077 29.2279 126.075 29.2285 126.071ZM31.8474 124.121C31.8467 124.122 31.8415 124.121 31.8337 124.116C31.8442 124.118 31.8481 124.12 31.8474 124.121Z" fill="#FFE657" stroke="#FFE657"/>
<path d="M13.3224 138.951L16.3505 143.959" stroke="#FFF3B1" stroke-linecap="round"/>
<path d="M16.0106 138.951L19.0387 143.959" stroke="#FFF3B1" stroke-linecap="round"/>
<path d="M20.0429 138.951L23.071 143.959" stroke="#FFF3B1" stroke-linecap="round"/>
<path d="M24.0751 137.607L27.1032 142.615" stroke="#FFF3B1" stroke-linecap="round"/>
<path d="M28.1074 136.263L31.1355 141.271" stroke="#FFF3B1" stroke-linecap="round"/>
<path d="M30.7956 134.919L33.8237 139.927" stroke="#FFF3B1" stroke-linecap="round"/>
<path d="M34.8279 132.23L37.8559 137.238" stroke="#FFF3B1" stroke-linecap="round"/>
<path d="M38.8601 129.542L41.8882 134.55" stroke="#FFF3B1" stroke-linecap="round"/>
<path d="M42.8924 126.854L45.9204 131.862" stroke="#FFF3B1" stroke-linecap="round"/>
<path d="M45.5806 124.166L48.6087 129.174" stroke="#FFF3B1" stroke-linecap="round"/>
<path d="M48.2687 121.478L51.2968 126.486" stroke="#FFF3B1" stroke-linecap="round"/>
<path d="M50.9569 118.79L53.985 123.797" stroke="#FFF3B1" stroke-linecap="round"/>
<path d="M52.301 116.101L55.3291 121.109" stroke="#FFF3B1" stroke-linecap="round"/>
<ellipse cx="137.5" cy="105.66" rx="3.77114" ry="10.3414" transform="rotate(58.9177 137.5 105.66)" fill="#FFE657"/>
<path d="M127.466 109.002C127.18 108.52 127.346 107.898 127.833 107.622L144.997 97.8957L146.113 99.8691C146.385 100.35 146.216 100.96 145.735 101.232L128.604 110.923L127.466 109.002Z" fill="#FFE657"/>
<path d="M137.809 106.025C135.384 107.487 132.991 108.443 131.096 108.817C130.146 109.005 129.349 109.041 128.746 108.94C128.14 108.838 127.798 108.613 127.633 108.34C127.468 108.066 127.429 107.658 127.622 107.076C127.815 106.495 128.219 105.807 128.828 105.055C130.044 103.554 132.006 101.884 134.432 100.422C136.857 98.9597 139.25 98.004 141.145 97.6298C142.095 97.4423 142.892 97.4063 143.495 97.5072C144.101 97.6085 144.443 97.8335 144.608 98.107C144.773 98.3805 144.812 98.7884 144.619 99.371C144.426 99.9515 144.022 100.64 143.413 101.392C142.197 102.893 140.235 104.563 137.809 106.025Z" fill="#FFFCAE" stroke="#FFE657"/>
<path d="M136.385 103.329C136.385 103.329 136.384 103.329 136.383 103.329L136.385 103.329ZM134.148 102.528L134.094 102.463L134.155 102.529C134.153 102.529 134.15 102.528 134.148 102.528Z" fill="#344256" stroke="#FFE657"/>
<path d="M128.634 109.25L129.902 111.347" stroke="#FFF3B1" stroke-linecap="round"/>
<path d="M129.76 109.25L131.027 111.347" stroke="#FFF3B1" stroke-linecap="round"/>
<path d="M131.448 109.25L132.716 111.347" stroke="#FFF3B1" stroke-linecap="round"/>
<path d="M133.136 108.687L134.404 110.784" stroke="#FFF3B1" stroke-linecap="round"/>
<path d="M134.824 108.125L136.092 110.221" stroke="#FFF3B1" stroke-linecap="round"/>
<path d="M135.95 107.562L137.217 109.658" stroke="#FFF3B1" stroke-linecap="round"/>
<path d="M137.638 106.436L138.906 108.533" stroke="#FFF3B1" stroke-linecap="round"/>
<path d="M139.326 105.311L140.594 107.408" stroke="#FFF3B1" stroke-linecap="round"/>
<path d="M141.014 104.186L142.282 106.282" stroke="#FFF3B1" stroke-linecap="round"/>
<path d="M142.14 103.06L143.407 105.157" stroke="#FFF3B1" stroke-linecap="round"/>
<path d="M143.265 101.935L144.533 104.031" stroke="#FFF3B1" stroke-linecap="round"/>
<path d="M144.391 100.809L145.658 102.906" stroke="#FFF3B1" stroke-linecap="round"/>
<path d="M144.953 99.6836L146.221 101.78" stroke="#FFF3B1" stroke-linecap="round"/>
<ellipse cx="172.059" cy="74.6208" rx="6.70155" ry="18.3773" transform="rotate(58.9177 172.059 74.6208)" fill="#FFE657"/>
<path d="M153.823 79.8771C153.538 79.3955 153.704 78.7734 154.191 78.4974L185.381 60.8225L187.748 65.0057C188.02 65.4864 187.851 66.0965 187.37 66.3685L156.25 83.9734L153.823 79.8771Z" fill="#FFE657"/>
<path d="M172.809 75.6015C168.47 78.217 164.176 79.9359 160.754 80.6117C159.04 80.9501 157.573 81.0214 156.438 80.8316C155.301 80.6414 154.565 80.2032 154.192 79.5832C153.818 78.9632 153.774 78.1083 154.136 77.014C154.498 75.922 155.247 74.6575 156.346 73.3002C158.542 70.5891 162.067 67.5947 166.406 64.9792C170.745 62.3637 175.038 60.6448 178.461 59.969C180.175 59.6306 181.642 59.5593 182.777 59.7491C183.914 59.9393 184.649 60.3775 185.023 60.9975C185.397 61.6175 185.441 62.4724 185.078 63.5667C184.716 64.6587 183.968 65.9232 182.869 67.2805C180.673 69.9916 177.148 72.986 172.809 75.6015Z" fill="#FFFCAE" stroke="#FFE657"/>
<path d="M165.767 71.5472L165.107 71.495C165.061 71.4913 165.017 71.4838 164.976 71.4737C164.804 71.4315 164.608 71.3256 164.4 71.1149C164.267 70.9804 164.194 70.7717 164.207 70.4681C164.22 70.1632 164.321 69.8156 164.469 69.4933C164.57 69.2749 164.701 69.0502 164.858 68.8479C164.716 69.1596 164.613 69.5134 164.599 69.858C164.584 70.2062 164.66 70.6088 164.959 70.9114L165.315 70.5599L164.959 70.9114C165.177 71.1319 165.393 71.2711 165.589 71.3484L165.892 71.4682L165.983 71.3786C165.677 72.1315 165.615 72.9412 166.038 73.6102C166.524 74.3801 167.442 74.6498 168.395 74.6238C168.226 74.6508 168.061 74.6704 167.901 74.6828C166.692 74.7763 165.899 74.4534 165.558 73.9135C165.297 73.5003 165.262 72.9094 165.537 72.1673L165.767 71.5472ZM165.458 68.329L165.429 68.3163C165.432 68.314 165.436 68.3117 165.44 68.3094L165.458 68.329ZM165.449 68.311L165.444 68.3066C165.444 68.3066 165.444 68.3065 165.444 68.3065C165.449 68.3038 165.453 68.301 165.458 68.2983L165.501 68.348L165.475 68.3364L165.449 68.311ZM165.301 68.1602L165.301 68.1596L165.37 68.2335L165.298 68.1632L165.298 68.1632L165.298 68.1631L165.298 68.1629L165.299 68.1625L165.299 68.1617L165.301 68.1602ZM165.528 68.3598L165.471 68.2904C165.471 68.2904 165.471 68.2904 165.471 68.2904L165.529 68.3599L165.528 68.3598ZM165.565 68.3756L165.481 68.2846C165.538 68.2517 165.599 68.2212 165.663 68.1951C165.893 68.101 165.996 68.127 166.012 68.1321C166.488 68.4474 167.104 68.5428 167.61 68.5393L167.434 68.5662C167.255 68.5936 167.068 68.6091 166.883 68.6122L166.89 68.9999L166.883 68.6122C166.431 68.6197 165.973 68.5535 165.613 68.3968L165.565 68.3756ZM168.754 68.3644L168.537 68.3975L168.578 68.3715C168.664 68.3172 168.797 68.239 168.932 68.194C168.948 68.1886 168.965 68.1835 168.982 68.1791C168.955 68.1956 168.927 68.2122 168.9 68.229L168.831 68.2716L168.779 68.3338C168.771 68.344 168.762 68.3542 168.754 68.3644ZM172.479 67.0382C172.729 66.9982 172.971 66.9743 173.201 66.9664C174.287 66.9291 174.997 67.2445 175.316 67.7486C175.657 68.2885 175.608 69.1438 175.004 70.1955C174.924 70.3347 174.836 70.4752 174.739 70.6162C175.172 69.7665 175.322 68.8218 174.836 68.0518C174.349 67.2817 173.431 67.0122 172.479 67.0382ZM165.973 68.8988L165.888 68.7954L165.979 68.8941L165.977 68.8954L165.975 68.8971L165.974 68.898L165.974 68.8984L165.973 68.8987L165.973 68.8988L165.973 68.8988ZM169.36 70.7567C169.084 70.9312 168.733 71.0771 168.442 71.1451C168.628 70.9111 168.911 70.6574 169.187 70.483C169.471 70.3034 169.714 70.182 169.893 70.1251C169.884 70.1503 169.873 70.1776 169.859 70.2069C169.772 70.3924 169.603 70.6027 169.36 70.7567ZM168.096 71.1786C168.096 71.1785 168.099 71.1789 168.103 71.1802C168.098 71.1794 168.096 71.1787 168.096 71.1786ZM168.265 71.4361C168.264 71.4404 168.263 71.4428 168.263 71.4429C168.263 71.443 168.263 71.4408 168.265 71.4361ZM169.923 69.9643C169.923 69.9643 169.923 69.9648 169.923 69.9658L169.923 69.9643Z" fill="#344256" stroke="#FFE657"/>
<path d="M156.304 81L158.557 84.7259" stroke="#FFF3B1" stroke-linecap="round"/>
<path d="M158.304 81L160.557 84.7259" stroke="#FFF3B1" stroke-linecap="round"/>
<path d="M161.304 81L163.557 84.7259" stroke="#FFF3B1" stroke-linecap="round"/>
<path d="M164.304 80L166.557 83.7259" stroke="#FFF3B1" stroke-linecap="round"/>
<path d="M167.304 79L169.557 82.7259" stroke="#FFF3B1" stroke-linecap="round"/>
<path d="M169.304 78L171.557 81.7259" stroke="#FFF3B1" stroke-linecap="round"/>
<path d="M172.304 76L174.557 79.7259" stroke="#FFF3B1" stroke-linecap="round"/>
<path d="M175.304 74L177.557 77.7259" stroke="#FFF3B1" stroke-linecap="round"/>
<path d="M178.304 72L180.557 75.7259" stroke="#FFF3B1" stroke-linecap="round"/>
<path d="M180.304 70L182.557 73.7259" stroke="#FFF3B1" stroke-linecap="round"/>
<path d="M182.304 68L184.557 71.7259" stroke="#FFF3B1" stroke-linecap="round"/>
<path d="M184.304 66L186.557 69.7259" stroke="#FFF3B1" stroke-linecap="round"/>
<path d="M185.304 64L187.557 67.7259" stroke="#FFF3B1" stroke-linecap="round"/>
<ellipse cx="262.059" cy="19.6208" rx="6.70155" ry="18.3773" transform="rotate(58.9177 262.059 19.6208)" fill="#FFE657"/>
<path d="M243.823 24.8771C243.538 24.3955 243.704 23.7734 244.191 23.4974L275.381 5.82254L277.748 10.0057C278.02 10.4864 277.851 11.0965 277.37 11.3685L246.25 28.9734L243.823 24.8771Z" fill="#FFE657"/>
<path d="M262.809 20.6015C258.47 23.217 254.176 24.9359 250.754 25.6117C249.04 25.9501 247.573 26.0214 246.438 25.8316C245.301 25.6414 244.565 25.2032 244.192 24.5832C243.818 23.9632 243.774 23.1083 244.136 22.014C244.498 20.922 245.247 19.6575 246.346 18.3002C248.542 15.5891 252.067 12.5947 256.406 9.97917C260.745 7.36366 265.038 5.64481 268.461 4.96897C270.175 4.63062 271.642 4.55927 272.777 4.74907C273.914 4.93926 274.649 5.37751 275.023 5.99753C275.397 6.61754 275.441 7.47243 275.078 8.56666C274.716 9.65869 273.968 10.9232 272.869 12.2805C270.673 14.9916 267.148 17.986 262.809 20.6015Z" fill="#FFFCAE" stroke="#FFE657"/>
<path d="M255.767 16.5472L255.107 16.495C255.061 16.4913 255.017 16.4838 254.976 16.4737C254.804 16.4315 254.608 16.3256 254.4 16.1149C254.267 15.9804 254.194 15.7717 254.207 15.4681C254.22 15.1632 254.321 14.8156 254.469 14.4933C254.57 14.2749 254.701 14.0502 254.858 13.8479C254.716 14.1596 254.613 14.5134 254.599 14.858C254.584 15.2062 254.66 15.6088 254.959 15.9114L255.315 15.5599L254.959 15.9114C255.177 16.1319 255.393 16.2711 255.589 16.3484L255.892 16.4682L255.983 16.3786C255.677 17.1315 255.615 17.9412 256.038 18.6102C256.524 19.3801 257.442 19.6498 258.395 19.6238C258.226 19.6508 258.061 19.6704 257.901 19.6828C256.692 19.7763 255.899 19.4534 255.558 18.9135C255.297 18.5003 255.262 17.9094 255.537 17.1673L255.767 16.5472ZM255.458 13.329L255.429 13.3163C255.432 13.314 255.436 13.3117 255.44 13.3094L255.458 13.329ZM255.449 13.311L255.444 13.3066C255.444 13.3066 255.444 13.3065 255.444 13.3065C255.449 13.3038 255.453 13.301 255.458 13.2983L255.501 13.348L255.475 13.3364L255.449 13.311ZM255.301 13.1602L255.301 13.1596L255.37 13.2335L255.298 13.1632L255.298 13.1632L255.298 13.1631L255.298 13.1629L255.299 13.1625L255.299 13.1617L255.301 13.1602ZM255.528 13.3598L255.471 13.2904C255.471 13.2904 255.471 13.2904 255.471 13.2904L255.529 13.3599L255.528 13.3598ZM255.565 13.3756L255.481 13.2846C255.538 13.2517 255.599 13.2212 255.663 13.1951C255.893 13.101 255.996 13.127 256.012 13.1321C256.488 13.4474 257.104 13.5428 257.61 13.5393L257.434 13.5662C257.255 13.5936 257.068 13.6091 256.883 13.6122L256.89 13.9999L256.883 13.6122C256.431 13.6197 255.973 13.5535 255.613 13.3968L255.565 13.3756ZM258.754 13.3644L258.537 13.3975L258.578 13.3715C258.664 13.3172 258.797 13.239 258.932 13.194C258.948 13.1886 258.965 13.1835 258.982 13.1791C258.955 13.1956 258.927 13.2122 258.9 13.229L258.831 13.2716L258.779 13.3338C258.771 13.344 258.762 13.3542 258.754 13.3644ZM262.479 12.0382C262.729 11.9982 262.971 11.9743 263.201 11.9664C264.287 11.9291 264.997 12.2445 265.316 12.7486C265.657 13.2885 265.608 14.1438 265.004 15.1955C264.924 15.3347 264.836 15.4752 264.739 15.6162C265.172 14.7665 265.322 13.8218 264.836 13.0518C264.349 12.2817 263.431 12.0122 262.479 12.0382ZM255.973 13.8988L255.888 13.7954L255.979 13.8941L255.977 13.8954L255.975 13.8971L255.974 13.898L255.974 13.8984L255.973 13.8987L255.973 13.8988L255.973 13.8988ZM259.36 15.7567C259.084 15.9312 258.733 16.0771 258.442 16.1451C258.628 15.9111 258.911 15.6574 259.187 15.483C259.471 15.3034 259.714 15.182 259.893 15.1251C259.884 15.1503 259.873 15.1776 259.859 15.2069C259.772 15.3924 259.603 15.6027 259.36 15.7567ZM258.096 16.1786C258.096 16.1785 258.099 16.1789 258.103 16.1802C258.098 16.1794 258.096 16.1787 258.096 16.1786ZM258.265 16.4361C258.264 16.4404 258.263 16.4428 258.263 16.4429C258.263 16.443 258.263 16.4408 258.265 16.4361ZM259.923 14.9643C259.923 14.9643 259.923 14.9648 259.923 14.9658L259.923 14.9643Z" fill="#344256" stroke="#FFE657"/>
<path d="M246.304 26L248.557 29.7259" stroke="#FFF3B1" stroke-linecap="round"/>
<path d="M248.304 26L250.557 29.7259" stroke="#FFF3B1" stroke-linecap="round"/>
<path d="M251.304 26L253.557 29.7259" stroke="#FFF3B1" stroke-linecap="round"/>
<path d="M254.304 25L256.557 28.7259" stroke="#FFF3B1" stroke-linecap="round"/>
<path d="M257.304 24L259.557 27.7259" stroke="#FFF3B1" stroke-linecap="round"/>
<path d="M259.304 23L261.557 26.7259" stroke="#FFF3B1" stroke-linecap="round"/>
<path d="M262.304 21L264.557 24.7259" stroke="#FFF3B1" stroke-linecap="round"/>
<path d="M265.304 19L267.557 22.7259" stroke="#FFF3B1" stroke-linecap="round"/>
<path d="M268.304 17L270.557 20.7259" stroke="#FFF3B1" stroke-linecap="round"/>
<path d="M270.304 15L272.557 18.7259" stroke="#FFF3B1" stroke-linecap="round"/>
<path d="M272.304 13L274.557 16.7259" stroke="#FFF3B1" stroke-linecap="round"/>
<path d="M274.304 11L276.557 14.7259" stroke="#FFF3B1" stroke-linecap="round"/>
<path d="M275.304 9L277.557 12.7259" stroke="#FFF3B1" stroke-linecap="round"/>
<ellipse cx="240.059" cy="120.621" rx="6.70155" ry="18.3773" transform="rotate(58.9177 240.059 120.621)" fill="#FFE657"/>
<path d="M221.823 125.877C221.538 125.395 221.704 124.773 222.191 124.497L253.381 106.823L255.748 111.006C256.02 111.486 255.851 112.097 255.37 112.368L224.25 129.973L221.823 125.877Z" fill="#FFE657"/>
<path d="M240.809 121.602C236.47 124.217 232.176 125.936 228.754 126.612C227.04 126.95 225.573 127.021 224.438 126.832C223.301 126.641 222.565 126.203 222.192 125.583C221.818 124.963 221.774 124.108 222.136 123.014C222.498 121.922 223.247 120.658 224.346 119.3C226.542 116.589 230.067 113.595 234.406 110.979C238.745 108.364 243.038 106.645 246.461 105.969C248.175 105.631 249.642 105.559 250.777 105.749C251.914 105.939 252.649 106.378 253.023 106.998C253.397 107.618 253.441 108.472 253.078 109.567C252.716 110.659 251.968 111.923 250.869 113.28C248.673 115.992 245.148 118.986 240.809 121.602Z" fill="#FFFCAE" stroke="#FFE657"/>
<path d="M233.767 117.547L233.107 117.495C233.061 117.491 233.017 117.484 232.976 117.474C232.804 117.432 232.608 117.326 232.4 117.115C232.267 116.98 232.194 116.772 232.207 116.468C232.22 116.163 232.321 115.816 232.469 115.493C232.57 115.275 232.701 115.05 232.858 114.848C232.716 115.16 232.613 115.513 232.599 115.858C232.584 116.206 232.66 116.609 232.959 116.911L233.315 116.56L232.959 116.911C233.177 117.132 233.393 117.271 233.589 117.348L233.892 117.468L233.983 117.379C233.677 118.132 233.615 118.941 234.038 119.61C234.524 120.38 235.442 120.65 236.395 120.624C236.226 120.651 236.061 120.67 235.901 120.683C234.692 120.776 233.899 120.453 233.558 119.913C233.297 119.5 233.262 118.909 233.537 118.167L233.767 117.547ZM233.458 114.329L233.429 114.316C233.432 114.314 233.436 114.312 233.44 114.309L233.458 114.329ZM233.449 114.311L233.444 114.307C233.444 114.307 233.444 114.307 233.444 114.307C233.449 114.304 233.453 114.301 233.458 114.298L233.501 114.348L233.475 114.336L233.449 114.311ZM233.301 114.16L233.301 114.16L233.37 114.234L233.298 114.163L233.298 114.163L233.298 114.163L233.298 114.163L233.299 114.162L233.299 114.162L233.301 114.16ZM233.528 114.36L233.471 114.29C233.471 114.29 233.471 114.29 233.471 114.29L233.529 114.36L233.528 114.36ZM233.565 114.376L233.481 114.285C233.538 114.252 233.599 114.221 233.663 114.195C233.893 114.101 233.996 114.127 234.012 114.132C234.488 114.447 235.104 114.543 235.61 114.539L235.434 114.566C235.255 114.594 235.068 114.609 234.883 114.612L234.89 115L234.883 114.612C234.431 114.62 233.973 114.553 233.613 114.397L233.565 114.376ZM236.754 114.364L236.537 114.398L236.578 114.372C236.664 114.317 236.797 114.239 236.932 114.194C236.948 114.189 236.965 114.184 236.982 114.179C236.955 114.196 236.927 114.212 236.9 114.229L236.831 114.272L236.779 114.334C236.771 114.344 236.762 114.354 236.754 114.364ZM240.479 113.038C240.729 112.998 240.971 112.974 241.201 112.966C242.287 112.929 242.997 113.245 243.316 113.749C243.657 114.288 243.608 115.144 243.004 116.195C242.924 116.335 242.836 116.475 242.739 116.616C243.172 115.766 243.322 114.822 242.836 114.052C242.349 113.282 241.431 113.012 240.479 113.038ZM233.973 114.899L233.888 114.795L233.979 114.894L233.977 114.895L233.975 114.897L233.974 114.898L233.974 114.898L233.973 114.899L233.973 114.899L233.973 114.899ZM237.36 116.757C237.084 116.931 236.733 117.077 236.442 117.145C236.628 116.911 236.911 116.657 237.187 116.483C237.471 116.303 237.714 116.182 237.893 116.125C237.884 116.15 237.873 116.178 237.859 116.207C237.772 116.392 237.603 116.603 237.36 116.757ZM236.096 117.179C236.096 117.178 236.099 117.179 236.103 117.18C236.098 117.179 236.096 117.179 236.096 117.179ZM236.265 117.436C236.264 117.44 236.263 117.443 236.263 117.443C236.263 117.443 236.263 117.441 236.265 117.436ZM237.923 115.964C237.923 115.964 237.923 115.965 237.923 115.966L237.923 115.964Z" fill="#344256" stroke="#FFE657"/>
<path d="M224.304 127L226.557 130.726" stroke="#FFF3B1" stroke-linecap="round"/>
<path d="M226.304 127L228.557 130.726" stroke="#FFF3B1" stroke-linecap="round"/>
<path d="M229.304 127L231.557 130.726" stroke="#FFF3B1" stroke-linecap="round"/>
<path d="M232.304 126L234.557 129.726" stroke="#FFF3B1" stroke-linecap="round"/>
<path d="M235.304 125L237.557 128.726" stroke="#FFF3B1" stroke-linecap="round"/>
<path d="M237.304 124L239.557 127.726" stroke="#FFF3B1" stroke-linecap="round"/>
<path d="M240.304 122L242.557 125.726" stroke="#FFF3B1" stroke-linecap="round"/>
<path d="M243.304 120L245.557 123.726" stroke="#FFF3B1" stroke-linecap="round"/>
<path d="M246.304 118L248.557 121.726" stroke="#FFF3B1" stroke-linecap="round"/>
<path d="M248.304 116L250.557 119.726" stroke="#FFF3B1" stroke-linecap="round"/>
<path d="M250.304 114L252.557 117.726" stroke="#FFF3B1" stroke-linecap="round"/>
<path d="M252.304 112L254.557 115.726" stroke="#FFF3B1" stroke-linecap="round"/>
<path d="M253.304 110L255.557 113.726" stroke="#FFF3B1" stroke-linecap="round"/>
<path d="M35.6957 83.968C32.1544 83.9467 29.4984 83.072 27.7277 81.344C25.9784 79.616 25.1037 76.8107 25.1037 72.928C25.1037 69.408 25.957 66.6453 27.6637 64.64C29.3704 62.6133 31.781 61.6 34.8957 61.6C36.8157 61.6 38.4904 61.888 39.9197 62.464C41.349 63.04 42.4477 63.8613 43.2157 64.928C43.9837 65.9947 44.3677 67.2533 44.3677 68.704C44.3677 69.856 44.1117 70.88 43.5997 71.776C43.109 72.672 42.373 73.472 41.3917 74.176C42.181 74.304 42.8637 74.7307 43.4397 75.456C44.037 76.1813 44.3357 77.024 44.3357 77.984C44.3357 79.008 44.0584 79.9787 43.5037 80.896C42.9704 81.792 42.053 82.528 40.7517 83.104C39.4717 83.68 37.7864 83.968 35.6957 83.968ZM33.4877 72.032C33.8717 72.224 34.3517 72.32 34.9277 72.32C35.6104 72.32 36.197 72.16 36.6877 71.84C37.1997 71.4987 37.4557 70.9973 37.4557 70.336C37.4557 69.696 37.1997 69.216 36.6877 68.896C36.197 68.5547 35.5997 68.384 34.8957 68.384C34.341 68.384 33.8717 68.48 33.4877 68.672C33.189 68.8 32.965 69.024 32.8157 69.344C32.6664 69.664 32.5917 70.0053 32.5917 70.368C32.5917 70.7307 32.6664 71.072 32.8157 71.392C32.965 71.6907 33.189 71.904 33.4877 72.032ZM33.4877 79.52C33.893 79.6907 34.373 79.776 34.9277 79.776C35.6104 79.776 36.197 79.6373 36.6877 79.36C37.1997 79.0613 37.4557 78.624 37.4557 78.048C37.4557 77.4933 37.1997 77.0667 36.6877 76.768C36.1757 76.4693 35.5784 76.32 34.8957 76.32C34.3624 76.32 33.893 76.4053 33.4877 76.576C33.189 76.704 32.965 76.9067 32.8157 77.184C32.6664 77.44 32.5917 77.728 32.5917 78.048C32.5917 78.368 32.6664 78.6667 32.8157 78.944C32.965 79.2 33.189 79.392 33.4877 79.52ZM53.3857 84C51.807 84 50.4097 83.6907 49.1937 83.072C47.9777 82.4533 47.0284 81.5893 46.3457 80.48C45.6844 79.3493 45.3537 78.08 45.3537 76.672C45.3537 75.2853 45.6844 74.0053 46.3457 72.832C47.0284 71.6587 47.967 70.72 49.1617 70.016C50.3564 69.312 51.711 68.96 53.2257 68.96C54.591 68.96 55.7964 69.2373 56.8417 69.792C57.887 70.3467 58.687 71.0827 59.2417 72C59.7964 72.896 60.0737 73.8347 60.0737 74.816C60.0737 76.416 59.4657 77.5893 58.2497 78.336C57.055 79.0613 55.6257 79.424 53.9617 79.424C52.8524 79.424 51.9137 79.2853 51.1457 79.008C51.7857 80.0533 52.8417 80.576 54.3137 80.576C54.911 80.576 55.551 80.5013 56.2337 80.352C56.4897 80.288 56.735 80.256 56.9697 80.256C57.439 80.256 57.8124 80.3733 58.0897 80.608C58.3884 80.8427 58.5377 81.1627 58.5377 81.568C58.5377 82.2293 58.1324 82.8053 57.3217 83.296C56.511 83.7653 55.199 84 53.3857 84ZM51.2417 75.104C51.4337 75.4027 51.6897 75.6267 52.0097 75.776C52.351 75.904 52.7244 75.968 53.1297 75.968C53.599 75.968 54.0044 75.8613 54.3457 75.648C54.7084 75.4347 54.8897 75.1573 54.8897 74.816C54.8897 74.432 54.7297 74.1013 54.4097 73.824C54.111 73.5467 53.6737 73.408 53.0977 73.408C52.5217 73.408 52.063 73.5893 51.7217 73.952C51.4017 74.2933 51.2417 74.6773 51.2417 75.104ZM76.6572 70.144C76.6572 71.2533 76.1345 72.0107 75.0892 72.416C74.0439 72.8 72.6145 73.0027 70.8012 73.024C70.7799 73.5573 70.7692 74.4213 70.7692 75.616C70.7692 76.832 70.8545 77.696 71.0252 78.208C71.1319 78.5707 71.2919 78.8053 71.5052 78.912C71.7399 79.0187 72.0812 79.0933 72.5292 79.136C72.6785 79.1573 72.8385 79.1893 73.0092 79.232C73.2012 79.2533 73.4145 79.2853 73.6492 79.328C74.1399 79.4347 74.5239 79.7013 74.8012 80.128C75.0785 80.5333 75.2172 81.056 75.2172 81.696C75.2172 82.4213 74.8439 82.9867 74.0972 83.392C73.3505 83.7973 72.3265 84 71.0252 84C69.8305 84 68.6892 83.6587 67.6012 82.976C66.5132 82.272 65.7665 81.3333 65.3612 80.16C64.9345 78.9013 64.7212 76.5227 64.7212 73.024C63.2279 72.9813 62.0225 72.7893 61.1052 72.448C60.2092 72.0853 59.7612 71.4453 59.7612 70.528C59.7612 69.376 60.1879 68.608 61.0412 68.224C61.8945 67.8187 63.1212 67.6053 64.7212 67.584C64.7852 65.8773 65.0519 64.4587 65.5212 63.328C65.9905 62.176 66.8332 61.6 68.0492 61.6C69.2865 61.6 70.0865 62.1333 70.4492 63.2C70.8332 64.2667 71.0039 65.728 70.9612 67.584C72.9025 67.5627 74.3319 67.712 75.2492 68.032C76.1879 68.352 76.6572 69.056 76.6572 70.144ZM94.1885 70.144C94.1885 71.2533 93.6658 72.0107 92.6205 72.416C91.5751 72.8 90.1458 73.0027 88.3325 73.024C88.3111 73.5573 88.3005 74.4213 88.3005 75.616C88.3005 76.832 88.3858 77.696 88.5565 78.208C88.6631 78.5707 88.8231 78.8053 89.0365 78.912C89.2711 79.0187 89.6125 79.0933 90.0605 79.136C90.2098 79.1573 90.3698 79.1893 90.5405 79.232C90.7325 79.2533 90.9458 79.2853 91.1805 79.328C91.6711 79.4347 92.0551 79.7013 92.3325 80.128C92.6098 80.5333 92.7485 81.056 92.7485 81.696C92.7485 82.4213 92.3751 82.9867 91.6285 83.392C90.8818 83.7973 89.8578 84 88.5565 84C87.3618 84 86.2205 83.6587 85.1325 82.976C84.0445 82.272 83.2978 81.3333 82.8925 80.16C82.4658 78.9013 82.2525 76.5227 82.2525 73.024C80.7591 72.9813 79.5538 72.7893 78.6365 72.448C77.7405 72.0853 77.2925 71.4453 77.2925 70.528C77.2925 69.376 77.7191 68.608 78.5725 68.224C79.4258 67.8187 80.6525 67.6053 82.2525 67.584C82.3165 65.8773 82.5831 64.4587 83.0525 63.328C83.5218 62.176 84.3645 61.6 85.5805 61.6C86.8178 61.6 87.6178 62.1333 87.9805 63.2C88.3645 64.2667 88.5351 65.728 88.4925 67.584C90.4338 67.5627 91.8631 67.712 92.7805 68.032C93.7191 68.352 94.1885 69.056 94.1885 70.144ZM98.254 68.48C97.2086 68.48 96.3233 68.1067 95.598 67.36C94.8726 66.592 94.51 65.664 94.51 64.576C94.51 63.5093 94.8726 62.6027 95.598 61.856C96.3233 61.088 97.2086 60.704 98.254 60.704C99.278 60.704 100.153 61.088 100.878 61.856C101.625 62.6027 101.998 63.5093 101.998 64.576C101.998 65.664 101.625 66.592 100.878 67.36C100.153 68.1067 99.278 68.48 98.254 68.48ZM98.254 84C97.3793 84 96.7286 83.7547 96.302 83.264C95.8966 82.752 95.6193 81.9947 95.47 80.992C95.342 79.968 95.278 78.5173 95.278 76.64C95.278 75.0613 95.3526 73.8133 95.502 72.896C95.6726 71.9787 95.9713 71.296 96.398 70.848C96.8246 70.4 97.4433 70.176 98.254 70.176C99.1286 70.176 99.7686 70.432 100.174 70.944C100.601 71.4347 100.878 72.192 101.006 73.216C101.155 74.2187 101.23 75.6587 101.23 77.536C101.23 79.1147 101.145 80.3627 100.974 81.28C100.825 82.1973 100.537 82.88 100.11 83.328C99.6833 83.776 99.0646 84 98.254 84ZM115.931 84C115.163 84 114.587 83.7867 114.203 83.36C113.841 82.9333 113.617 82.4107 113.531 81.792C113.446 81.1733 113.403 80.3733 113.403 79.392C113.403 78.1333 113.233 77.1627 112.891 76.48C112.55 75.7973 111.995 75.456 111.227 75.456C110.523 75.456 109.99 75.7973 109.627 76.48C109.286 77.1413 109.115 78.0587 109.115 79.232C109.115 80.3627 109.083 81.216 109.019 81.792C108.955 82.368 108.742 82.88 108.379 83.328C108.017 83.7547 107.419 83.968 106.587 83.968C105.371 83.968 104.518 83.1893 104.027 81.632C103.537 80.0533 103.291 78.208 103.291 76.096C103.291 70.976 104.369 68.416 106.523 68.416C107.121 68.416 107.611 68.5653 107.995 68.864C108.379 69.1413 108.646 69.5467 108.795 70.08C109.073 69.7813 109.499 69.5147 110.075 69.28C110.673 69.0453 111.302 68.928 111.963 68.928C114.31 68.928 116.059 69.7813 117.211 71.488C118.385 73.1947 118.971 75.5093 118.971 78.432C118.971 80.16 118.747 81.5253 118.299 82.528C117.851 83.5093 117.062 84 115.931 84ZM126.923 89.472C125.686 89.472 124.673 89.2373 123.883 88.768C123.094 88.32 122.699 87.7013 122.699 86.912C122.699 86.208 122.966 85.632 123.499 85.184C124.054 84.7573 124.747 84.544 125.579 84.544C125.729 84.544 125.974 84.5653 126.315 84.608C126.742 84.672 127.137 84.704 127.499 84.704C128.417 84.704 129.206 84.544 129.867 84.224C130.55 83.9253 130.966 83.52 131.115 83.008C130.774 83.2 130.294 83.36 129.675 83.488C129.057 83.616 128.395 83.68 127.691 83.68C125.878 83.68 124.385 83.328 123.211 82.624C122.059 81.92 121.227 81.056 120.715 80.032C120.203 78.9867 119.947 77.9627 119.947 76.96C119.947 75.296 120.31 73.856 121.035 72.64C121.782 71.424 122.742 70.496 123.915 69.856C125.089 69.216 126.315 68.896 127.595 68.896C128.022 68.896 128.513 68.928 129.067 68.992C129.643 69.056 130.123 69.1307 130.507 69.216C130.678 68.64 130.966 68.192 131.371 67.872C131.798 67.552 132.427 67.392 133.259 67.392C134.646 67.392 135.649 68.256 136.267 69.984C136.907 71.712 137.227 73.8453 137.227 76.384C137.227 77.5787 137.163 78.7093 137.035 79.776C136.715 82.784 135.659 85.152 133.867 86.88C132.075 88.608 129.761 89.472 126.923 89.472ZM128.107 78.88C128.769 78.88 129.345 78.6453 129.835 78.176C130.326 77.6853 130.571 77.1093 130.571 76.448C130.571 75.7867 130.326 75.2107 129.835 74.72C129.345 74.2293 128.769 73.984 128.107 73.984C127.446 73.984 126.87 74.2293 126.379 74.72C125.91 75.2107 125.675 75.7867 125.675 76.448C125.675 77.1093 125.91 77.6853 126.379 78.176C126.87 78.6453 127.446 78.88 128.107 78.88ZM157.377 84C154.625 84 152.62 83.6693 151.361 83.008C150.102 82.3467 149.292 81.2907 148.929 79.84C148.566 78.3893 148.385 76.128 148.385 73.056C148.385 69.9413 148.556 67.6267 148.897 66.112C149.26 64.576 150.06 63.4453 151.297 62.72C152.556 61.9733 154.55 61.6 157.281 61.6C158.924 61.6 160.598 61.984 162.305 62.752C164.012 63.4987 165.452 64.736 166.625 66.464C167.798 68.192 168.385 70.4 168.385 73.088C168.385 75.6693 167.788 77.7813 166.593 79.424C165.398 81.0453 163.958 82.2187 162.273 82.944C160.588 83.648 158.956 84 157.377 84ZM155.393 78.368C156.076 78.4533 156.566 78.496 156.865 78.496C158.38 78.496 159.553 78.0907 160.385 77.28C161.217 76.4693 161.633 75.3493 161.633 73.92C161.633 72.64 161.228 71.648 160.417 70.944C159.606 70.2187 158.465 69.856 156.993 69.856C156.438 69.856 155.905 69.8987 155.393 69.984V78.368ZM177.723 84C176.165 84 174.8 83.616 173.627 82.848C172.453 82.0587 171.547 80.9707 170.907 79.584C170.288 78.176 169.979 76.5547 169.979 74.72C169.979 72.928 170.267 71.52 170.843 70.496C171.419 69.472 172.219 68.96 173.243 68.96C175.056 68.96 175.963 69.888 175.963 71.744C175.963 72.128 175.952 72.4693 175.931 72.768C175.909 73.0453 175.888 73.2907 175.867 73.504C175.781 74.3573 175.739 75.04 175.739 75.552C175.739 76.4907 175.931 77.2053 176.315 77.696C176.699 78.1867 177.168 78.432 177.723 78.432C178.299 78.432 178.768 78.1973 179.131 77.728C179.515 77.2373 179.707 76.512 179.707 75.552C179.707 74.8693 179.675 74.24 179.611 73.664C179.589 73.472 179.568 73.1947 179.547 72.832C179.525 72.448 179.515 72.096 179.515 71.776C179.515 69.8987 180.421 68.96 182.235 68.96C183.259 68.96 184.048 69.472 184.603 70.496C185.179 71.4987 185.467 72.9067 185.467 74.72C185.467 77.5573 184.805 79.8187 183.483 81.504C182.16 83.168 180.24 84 177.723 84ZM194.381 83.968C193.016 83.968 191.725 83.6373 190.509 82.976C189.315 82.2933 188.355 81.376 187.629 80.224C186.904 79.072 186.541 77.7813 186.541 76.352C186.541 74.8587 186.893 73.5573 187.597 72.448C188.323 71.3173 189.272 70.4533 190.445 69.856C191.64 69.2587 192.92 68.96 194.285 68.96C195.587 68.96 196.76 69.216 197.805 69.728C198.851 70.24 199.661 70.912 200.237 71.744C200.813 72.5547 201.101 73.408 201.101 74.304C201.101 75.0507 200.867 75.6267 200.397 76.032C199.949 76.4373 199.277 76.64 198.381 76.64C197.912 76.64 197.549 76.5547 197.293 76.384C197.037 76.2133 196.771 75.9573 196.493 75.616C196.237 75.296 195.992 75.0613 195.757 74.912C195.544 74.7413 195.235 74.656 194.829 74.656C194.253 74.656 193.763 74.8587 193.357 75.264C192.952 75.648 192.749 76.1493 192.749 76.768C192.749 77.408 192.941 77.92 193.325 78.304C193.731 78.688 194.232 78.88 194.829 78.88C195.213 78.88 195.512 78.8267 195.725 78.72C195.939 78.6133 196.173 78.4427 196.429 78.208C196.728 77.952 197.005 77.7707 197.261 77.664C197.517 77.536 197.891 77.472 198.381 77.472C199.256 77.472 199.928 77.7067 200.397 78.176C200.867 78.6453 201.101 79.1893 201.101 79.808C201.101 80.5333 200.813 81.216 200.237 81.856C199.683 82.496 198.893 83.008 197.869 83.392C196.845 83.776 195.683 83.968 194.381 83.968ZM215.025 76.064C215.345 76.4693 215.857 77.2267 216.561 78.336C217.393 79.6587 217.809 80.7787 217.809 81.696C217.809 82.4427 217.564 83.008 217.073 83.392C216.582 83.7547 216.006 83.936 215.345 83.936C214.726 83.936 214.097 83.68 213.457 83.168C212.838 82.656 212.188 81.9627 211.505 81.088C210.78 80.128 210.3 79.4453 210.065 79.04C209.788 79.1467 209.478 79.2533 209.137 79.36C208.988 80.96 208.689 82.1227 208.241 82.848C207.793 83.5733 207.11 83.936 206.193 83.936C205.254 83.936 204.508 83.552 203.953 82.784C203.398 82.016 202.993 80.8213 202.737 79.2C202.502 77.5787 202.385 75.4347 202.385 72.768C202.385 70.2293 202.46 68.192 202.609 66.656C202.78 65.0987 203.142 63.872 203.697 62.976C204.252 62.0587 205.084 61.6 206.193 61.6C207.11 61.6 207.793 61.92 208.241 62.56C208.71 63.2 209.009 64.0853 209.137 65.216C209.286 66.3253 209.361 67.8187 209.361 69.696V71.712L209.457 71.648C210.694 70.816 211.782 70.1653 212.721 69.696C213.681 69.2267 214.545 68.992 215.313 68.992C216.188 68.992 216.87 69.2907 217.361 69.888C217.873 70.464 218.129 71.1147 218.129 71.84C218.129 72.608 217.873 73.312 217.361 73.952C216.849 74.592 216.07 75.296 215.025 76.064Z" fill="#344256"/>
<defs>
<filter id="filter0_f_599_498" x="84.2037" y="181.9" width="55.2" height="15.2" filterUnits="userSpaceOnUse" color-interpolation-filters="sRGB">
<feFlood flood-opacity="0" result="BackgroundImageFix"/>
<feBlend mode="normal" in="SourceGraphic" in2="BackgroundImageFix" result="shape"/>
<feGaussianBlur stdDeviation="2.05" result="effect1_foregroundBlur_599_498"/>
</filter>
<filter id="filter1_d_599_498" x="28.2684" y="89.7177" width="146.086" height="113.442" filterUnits="userSpaceOnUse" color-interpolation-filters="sRGB">
<feFlood flood-opacity="0" result="BackgroundImageFix"/>
<feColorMatrix in="SourceAlpha" type="matrix" values="0 0 0 0 0 0 0 0 0 0 0 0 0 0 0 0 0 0 127 0" result="hardAlpha"/>
<feMorphology radius="1" operator="dilate" in="SourceAlpha" result="effect1_dropShadow_599_498"/>
<feOffset dx="-18" dy="4"/>
<feGaussianBlur stdDeviation="4.2"/>
<feComposite in2="hardAlpha" operator="out"/>
<feColorMatrix type="matrix" values="0 0 0 0 0 0 0 0 0 0 0 0 0 0 0 0 0 0 0.25 0"/>
<feBlend mode="normal" in2="BackgroundImageFix" result="effect1_dropShadow_599_498"/>
<feBlend mode="normal" in="SourceGraphic" in2="effect1_dropShadow_599_498" result="shape"/>
</filter>
<filter id="filter2_f_599_498" x="65.1086" y="96.6938" width="38.8187" height="44.3511" filterUnits="userSpaceOnUse" color-interpolation-filters="sRGB">
<feFlood flood-opacity="0" result="BackgroundImageFix"/>
<feBlend mode="normal" in="SourceGraphic" in2="BackgroundImageFix" result="shape"/>
<feGaussianBlur stdDeviation="2" result="effect1_foregroundBlur_599_498"/>
</filter>
<filter id="filter3_d_599_498" x="126.426" y="112.794" width="51.9279" height="57.2161" filterUnits="userSpaceOnUse" color-interpolation-filters="sRGB">
<feFlood flood-opacity="0" result="BackgroundImageFix"/>
<feColorMatrix in="SourceAlpha" type="matrix" values="0 0 0 0 0 0 0 0 0 0 0 0 0 0 0 0 0 0 127 0" result="hardAlpha"/>
<feOffset dy="4"/>
<feGaussianBlur stdDeviation="2"/>
<feComposite in2="hardAlpha" operator="out"/>
<feColorMatrix type="matrix" values="0 0 0 0 0 0 0 0 0 0 0 0 0 0 0 0 0 0 0.25 0"/>
<feBlend mode="normal" in2="BackgroundImageFix" result="effect1_dropShadow_599_498"/>
<feBlend mode="normal" in="SourceGraphic" in2="effect1_dropShadow_599_498" result="shape"/>
</filter>
<linearGradient id="paint0_linear_599_498" x1="85.3037" y1="189.5" x2="135.304" y2="189.5" gradientUnits="userSpaceOnUse">
<stop stop-color="white"/>
<stop offset="0.59" stop-color="#494949" stop-opacity="0.55"/>
</linearGradient>
<linearGradient id="paint1_linear_599_498" x1="119.304" y1="175.5" x2="99.304" y2="186" gradientUnits="userSpaceOnUse">
<stop offset="0.444875" stop-color="#F19A70"/>
<stop offset="1" stop-color="#D26A06"/>
</linearGradient>
<linearGradient id="paint2_linear_599_498" x1="126.835" y1="175.284" x2="114.185" y2="189.108" gradientUnits="userSpaceOnUse">
<stop offset="0.365941" stop-color="#F29B70"/>
<stop offset="0.82824" stop-color="#C1640A"/>
</linearGradient>
<linearGradient id="paint3_linear_599_498" x1="131.139" y1="117.915" x2="105.527" y2="154.526" gradientUnits="userSpaceOnUse">
<stop stop-color="#FBD170"/>
<stop offset="1" stop-color="#E67808"/>
</linearGradient>
<linearGradient id="paint4_linear_599_498" x1="106.886" y1="116.637" x2="64.5979" y2="142.657" gradientUnits="userSpaceOnUse">
<stop stop-color="#FFDF7D"/>
<stop offset="1" stop-color="#E57401"/>
</linearGradient>
<linearGradient id="paint5_linear_599_498" x1="102.5" y1="141.819" x2="90.4734" y2="155.035" gradientUnits="userSpaceOnUse">
<stop stop-color="#FBD06F"/>
<stop offset="1" stop-color="#E36F00"/>
</linearGradient>
<linearGradient id="paint6_linear_599_498" x1="153.882" y1="111.826" x2="130.31" y2="150.146" gradientUnits="userSpaceOnUse">
<stop offset="0.328722" stop-color="#FBCF6D"/>
<stop offset="1" stop-color="#E98416"/>
</linearGradient>
<radialGradient id="paint7_radial_599_498" cx="0" cy="0" r="1" gradientUnits="userSpaceOnUse" gradientTransform="translate(122.434 151.762) rotate(122.817) scale(27.7314 32.0699)">
<stop stop-color="#FFE385"/>
<stop offset="1" stop-color="#E47201"/>
</radialGradient>
</defs>
</svg>
